<?xml version="1.0" encoding="UTF-8" standalone="no"?>
<!-- Created with Inkscape (http://www.inkscape.org/) -->
<svg
   xmlns:svg="http://www.w3.org/2000/svg"
   xmlns="http://www.w3.org/2000/svg"
   version="1.0"
   width="756.49603"
   height="389.76376"
   id="svg2530">
  <defs
     id="defs2532" />
  <g
     transform="translate(142.10581,-343.55259)"
     id="layer1">
    <g
       transform="translate(17.794411,17.716527)"
       id="g2896">
      <path
         d="M 106.48418,447.99302 C 106.48418,454.62665 106.48418,462.03654 100.5007,462.03654 C 93.813887,462.03654 93.813887,454.8854 93.813887,449.94332 C 93.813887,441.16701 94.590052,436.62289 100.30162,436.62289 C 106.22554,436.62289 106.48418,443.6413 106.48418,447.99302 z M 106.48418,436.2315 L 106.29189,436.2315 C 104.46764,433.63109 102.19223,432.26457 99.081098,432.26457 C 88.473838,432.26457 88.215089,441.691 88.215089,449.87695 C 88.215089,464.30526 93.548546,466.38817 98.815757,466.38817 C 102.2586,466.38817 104.5339,464.89562 106.35815,461.83746 L 106.48418,461.83746 L 106.48418,465.73804 L 111.81107,465.73804 L 111.81107,418.81152 L 106.48418,418.81152 L 106.48418,436.2315"
         style="fill:#000000;fill-rule:evenodd;stroke:none"
         id="path24" />
      <path
         d="M 126.25253,447.01788 C 126.31232,437.92314 129.11171,436.29787 132.4882,436.29787 C 136.38878,436.29787 139.04887,437.45872 139.04887,447.01788 L 126.25253,447.01788 z M 144.70746,451.05119 L 144.70746,448.25836 C 144.70746,437.39905 142.36579,432.26457 133.0123,432.26457 C 121.63556,432.26457 120.5277,440.19845 120.5277,449.81071 C 120.5277,464.30526 126.05356,466.38817 133.0123,466.38817 C 139.89798,466.38817 144.38233,463.07794 144.4487,455.80088 L 138.59782,455.80088 C 138.40543,459.111 136.52151,462.03654 132.87957,462.03654 C 128.72034,462.03654 126.25253,460.21228 126.25253,451.05119 L 144.70746,451.05119"
         style="fill:#000000;fill-rule:evenodd;stroke:none"
         id="path28" />
      <path
         d="M 157.90844,432.91469 L 152.57498,432.91469 L 152.57498,465.73804 L 157.90844,465.73804 L 157.90844,446.37445 C 157.90844,441.94977 159.401,437.45872 165.31164,437.45872 C 166.28679,437.45872 167.20215,437.6578 168.17731,437.79043 L 168.17731,432.26457 C 162.97657,432.26457 160.25011,432.84834 158.03447,437.85009 L 157.90844,437.85009 L 157.90844,432.91469"
         style="fill:#000000;fill-rule:nonzero;stroke:none"
         id="path32" />
      <path
         d="M 213.83021,418.81152 L 207.714,418.81152 L 196.72864,460.07956 L 196.60261,460.07956 L 185.87602,418.81152 L 179.37501,418.81152 L 192.96069,465.73804 L 200.11182,465.73804 L 213.83021,418.81152"
         style="fill:#000000;fill-rule:nonzero;stroke:none"
         id="path36" />
      <path
         d="M 220.64305,447.01788 C 220.70931,437.92314 223.50214,436.29787 226.87872,436.29787 C 230.78588,436.29787 233.45267,437.45872 233.45267,447.01788 L 220.64305,447.01788 z M 239.11114,451.05119 L 239.11114,448.25836 C 239.11114,437.39905 236.76948,432.26457 227.40272,432.26457 C 216.02599,432.26457 214.9248,440.19845 214.9248,449.81071 C 214.9248,464.30526 220.45066,466.38817 227.40272,466.38817 C 234.29508,466.38817 238.77944,463.07794 238.84581,455.80088 L 233.00151,455.80088 C 232.80254,459.111 230.91861,462.03654 227.27009,462.03654 C 223.11075,462.03654 220.64305,460.21228 220.64305,451.05119 L 239.11114,451.05119"
         style="fill:#000000;fill-rule:evenodd;stroke:none"
         id="path40" />
      <path
         d="M 252.30555,432.91469 L 246.97208,432.91469 L 246.97208,465.73804 L 252.30555,465.73804 L 252.30555,446.37445 C 252.30555,441.94977 253.79809,437.45872 259.71533,437.45872 C 260.69716,437.45872 261.59926,437.6578 262.5744,437.79043 L 262.5744,432.26457 C 257.37366,432.26457 254.64062,432.84834 252.43816,437.85009 L 252.30555,437.85009 L 252.30555,432.91469"
         style="fill:#000000;fill-rule:nonzero;stroke:none"
         id="path44" />
      <path
         d="M 265.20136,432.91469 L 265.20136,436.94132 L 270.6012,436.94132 L 270.6012,460.27854 C 270.6012,464.04651 272.86991,466.12952 277.94462,466.12952 C 279.69592,466.12952 281.45382,465.73804 283.20513,465.60542 L 283.20513,461.51244 C 282.03759,461.64506 281.19517,461.77778 280.8038,461.77778 C 275.92797,461.77778 275.92797,459.111 275.92797,457.02809 L 275.92797,436.94132 L 283.0791,436.94132 L 283.0791,432.91469 L 275.92797,432.91469 L 275.92797,424.20465 L 270.6012,426.6061 L 270.6012,432.91469 L 265.20136,432.91469"
         style="fill:#000000;fill-rule:nonzero;stroke:none"
         id="path48" />
      <path
         d="M 293.39446,447.01788 C 293.46083,437.92314 296.25354,436.29787 299.63013,436.29787 C 303.5373,436.29787 306.20408,437.45872 306.20408,447.01788 L 293.39446,447.01788 z M 311.84928,451.05119 L 311.84928,448.25836 C 311.84928,437.39905 309.52089,432.26457 300.15412,432.26457 C 288.7774,432.26457 287.66963,440.19845 287.66963,449.81071 C 287.66963,464.30526 293.20206,466.38817 300.15412,466.38817 C 307.0465,466.38817 311.53096,463.07794 311.59721,455.80088 L 305.74634,455.80088 C 305.55394,459.111 303.66333,462.03654 300.0215,462.03654 C 295.86216,462.03654 293.39446,460.21228 293.39446,451.05119 L 311.84928,451.05119"
         style="fill:#000000;fill-rule:evenodd;stroke:none"
         id="path52" />
      <path
         d="M 319.39848,465.7049 L 324.70539,465.7049 L 324.70539,432.93455 L 319.39848,432.93455 L 319.39848,465.7049 z M 325.0371,418.80493 L 319.06677,418.80493 L 319.06677,424.5098 L 325.0371,424.5098 L 325.0371,418.80493 z "
         style="fill:#000000;fill-rule:evenodd;stroke:none"
         id="path54" />
      <path
         d="M 351.30634,447.99302 C 351.30634,454.62665 351.30634,462.03654 345.32943,462.03654 C 338.62945,462.03654 338.62945,454.8854 338.62945,449.94332 C 338.62945,441.16701 339.4122,436.62289 345.13703,436.62289 C 351.04769,436.62289 351.30634,443.6413 351.30634,447.99302 z M 351.30634,436.2315 L 351.11405,436.2315 C 349.29637,433.63109 347.01439,432.26457 343.89655,432.26457 C 333.30257,432.26457 333.04393,441.691 333.04393,449.87695 C 333.04393,464.30526 338.3707,466.38817 343.6379,466.38817 C 347.08075,466.38817 349.36274,464.89562 351.17372,461.83746 L 351.30634,461.83746 L 351.30634,465.73804 L 356.6398,465.73804 L 356.6398,418.81152 L 351.30634,418.81152 L 351.30634,436.2315"
         style="fill:#000000;fill-rule:evenodd;stroke:none"
         id="path58" />
      <path
         d="M 366.29845,465.7049 L 371.67173,465.7049 L 371.67173,432.93455 L 366.29845,432.93455 L 366.29845,465.7049 z M 372.00343,418.80493 L 365.96675,418.80493 L 365.96675,424.5098 L 372.00343,424.5098 L 372.00343,418.80493 z "
         style="fill:#000000;fill-rule:evenodd;stroke:none"
         id="path60" />
      <path
         d="M 398.35899,449.16715 C 398.35899,453.71786 398.55798,461.31347 392.12334,461.31347 C 388.16308,461.31347 385.75506,458.85235 385.75506,448.31804 C 385.75506,443.96641 385.94735,436.68266 391.99731,436.68266 C 398.6907,436.68266 398.35899,444.29143 398.35899,449.16715 z M 398.23296,436.94132 L 398.10693,436.94132 C 396.60769,433.75712 393.87465,432.26457 390.4317,432.26457 C 387.7716,432.26457 380.16284,433.23971 380.16284,448.31804 C 380.16284,458.0696 381.91415,465.73804 390.82318,465.73804 C 393.68225,465.73804 396.66737,464.2389 398.03388,461.64506 L 398.23296,461.64506 L 398.23296,468.47119 C 398.23296,471.84766 396.22289,474.12965 392.51471,474.12965 C 389.58259,474.12965 387.57263,472.43812 387.50626,469.37338 L 381.52278,469.37338 C 381.07162,475.42992 386.00713,478.15627 391.47321,478.15627 C 398.6907,478.15627 403.56643,476.39837 403.56643,469.05496 L 403.56643,432.91469 L 398.23296,432.91469 L 398.23296,436.94132"
         style="fill:#000000;fill-rule:evenodd;stroke:none"
         id="path64" />
      <path
         d="M 430.60526,454.69301 C 430.60526,460.14593 427.03637,462.29519 424.17062,462.29519 C 420.40265,462.29519 418.58508,459.62851 418.58508,455.66816 L 418.58508,432.91469 L 413.24493,432.91469 L 413.24493,457.93687 C 413.24493,463.52909 416.36935,466.38817 422.09429,466.38817 C 425.53713,466.38817 428.65496,464.76289 430.41286,461.77778 L 430.60526,461.77778 L 430.60526,465.73804 L 436.25714,465.73804 C 436.06475,463.46942 435.93203,461.18743 435.93203,458.91871 L 435.93203,432.91469 L 430.60526,432.91469 L 430.60526,454.69301"
         style="fill:#000000;fill-rule:nonzero;stroke:none"
         id="path68" />
      <path
         d="M 468.6958,465.73804 L 468.6958,442.99127 C 468.6958,436.49026 466.94448,432.26457 459.91938,432.26457 C 455.70038,432.26457 453.23268,433.43211 451.14967,437.13371 L 450.88433,437.13371 L 450.88433,432.91469 L 445.23243,432.91469 C 445.43151,435.19 445.56413,437.45872 445.56413,439.74071 L 445.56413,465.73804 L 450.88433,465.73804 L 450.88433,446.30139 C 450.88433,441.81704 451.73344,436.62289 457.58442,436.62289 C 462.12843,436.62289 463.36892,439.48207 463.36892,442.99127 L 463.36892,465.73804 L 468.6958,465.73804"
         style="fill:#000000;fill-rule:nonzero;stroke:none"
         id="path72" />
      <path
         d="M 495.03141,449.16715 C 495.03141,453.71786 495.2238,461.31347 488.78916,461.31347 C 484.82222,461.31347 482.41418,458.85235 482.41418,448.31804 C 482.41418,443.96641 482.60658,436.68266 488.66313,436.68266 C 495.34983,436.68266 495.03141,444.29143 495.03141,449.16715 z M 494.89878,436.94132 L 494.76606,436.94132 C 493.26682,433.75712 490.54047,432.26457 487.09752,432.26457 C 484.43084,432.26457 476.82866,433.23971 476.82866,448.31804 C 476.82866,458.0696 478.57997,465.73804 487.48231,465.73804 C 490.34807,465.73804 493.33987,464.2389 494.6997,461.64506 L 494.89878,461.64506 L 494.89878,468.47119 C 494.89878,471.84766 492.88213,474.12965 489.17385,474.12965 C 486.24841,474.12965 484.23845,472.43812 484.17208,469.37338 L 478.18849,469.37338 C 477.73086,475.42992 482.67953,478.15627 488.13903,478.15627 C 495.34983,478.15627 500.22555,476.39837 500.22555,469.05496 L 500.22555,432.91469 L 494.89878,432.91469 L 494.89878,436.94132"
         style="fill:#000000;fill-rule:evenodd;stroke:none"
         id="path76" />
      <path
         d="M 96.155661,374.12717 L 102.53063,374.12717 C 108.64015,374.12717 113.25053,375.42733 113.25053,382.8969 C 113.25053,386.34632 110.97523,390.89703 104.60695,390.89703 L 96.155661,390.89703 L 96.155661,374.12717 z M 96.155661,354.35883 L 104.60695,354.35883 C 109.61529,354.35883 111.82434,357.54301 111.82434,361.44359 C 111.82434,365.9943 109.54904,368.85997 104.86561,368.91974 L 96.155661,368.91974 L 96.155661,354.35883 z M 105.25698,396.09119 C 110.58386,396.09119 119.36015,394.93034 119.36015,382.8969 C 119.36015,376.46215 116.43473,372.43554 109.74801,371.65278 L 109.74801,371.33435 C 115.7846,369.96114 117.80793,366.06725 117.80793,360.21639 C 117.80793,359.30749 117.54259,356.51478 115.91731,353.97403 C 114.16601,351.3736 111.95037,349.16467 105.45606,349.16467 L 90.17865,349.16467 L 90.17865,396.09119 L 105.25698,396.09119"
         style="fill:#000000;fill-rule:evenodd;stroke:none"
         id="path80" />
      <path
         d="M 144.48852,385.04617 C 144.48852,390.50566 140.91295,392.64835 138.05388,392.64835 C 134.28591,392.64835 132.46166,389.98156 132.46166,386.02131 L 132.46166,363.27443 L 127.14147,363.27443 L 127.14147,388.29003 C 127.14147,393.88225 130.25272,396.74132 135.97086,396.74132 C 139.41381,396.74132 142.5448,395.12273 144.28954,392.13093 L 144.48852,392.13093 L 144.48852,396.09119 L 150.147,396.09119 C 149.95471,393.82246 149.82198,391.54716 149.82198,389.26517 L 149.82198,363.27443 L 144.48852,363.27443 L 144.48852,385.04617"
         style="fill:#000000;fill-rule:nonzero;stroke:none"
         id="path84" />
      <path
         d="M 182.58564,396.09119 L 182.58564,373.34431 C 182.58564,366.84341 180.82775,362.61772 173.80933,362.61772 C 169.58364,362.61772 167.10935,363.79184 165.03304,367.49344 L 164.77428,367.49344 L 164.77428,363.27443 L 159.1158,363.27443 C 159.30809,365.54316 159.44082,367.81857 159.44082,370.09387 L 159.44082,396.09119 L 164.77428,396.09119 L 164.77428,376.65454 C 164.77428,372.17688 165.61681,366.97604 171.46767,366.97604 C 176.01839,366.97604 177.25219,369.83511 177.25219,373.34431 L 177.25219,396.09119 L 182.58564,396.09119"
         style="fill:#000000;fill-rule:nonzero;stroke:none"
         id="path88" />
      <path
         d="M 208.78205,378.34618 C 208.78205,384.9798 208.78205,392.38959 202.79845,392.38959 C 196.11175,392.38959 196.11175,385.23855 196.11175,380.30306 C 196.11175,371.52675 196.88792,366.97604 202.59948,366.97604 C 208.5233,366.97604 208.78205,373.99445 208.78205,378.34618 z M 208.78205,366.58466 L 208.58965,366.58466 C 206.7654,363.99093 204.4901,362.61772 201.37226,362.61772 C 190.77159,362.61772 190.51294,372.05085 190.51294,380.23011 C 190.51294,394.665 195.84641,396.74132 201.10692,396.74132 C 204.56304,396.74132 206.83176,395.24876 208.65601,392.19061 L 208.78205,392.19061 L 208.78205,396.09119 L 214.10882,396.09119 L 214.10882,349.16467 L 208.78205,349.16467 L 208.78205,366.58466"
         style="fill:#000000;fill-rule:evenodd;stroke:none"
         id="path92" />
      <path
         d="M 227.89358,377.37103 C 227.96663,368.2762 230.75275,366.65102 234.13593,366.65102 C 238.02982,366.65102 240.70329,367.81857 240.70329,377.37103 L 227.89358,377.37103 z M 246.35508,381.40423 L 246.35508,378.61152 C 246.35508,367.75878 244.00683,362.61772 234.65333,362.61772 C 223.28319,362.61772 222.17543,370.55161 222.17543,380.17044 C 222.17543,394.665 227.70129,396.74132 234.65333,396.74132 C 241.54571,396.74132 246.03006,393.43109 246.08974,386.15392 L 240.23887,386.15392 C 240.04647,389.46415 238.16254,392.38959 234.5273,392.38959 C 230.36138,392.38959 227.89358,390.56533 227.89358,381.40423 L 246.35508,381.40423"
         style="fill:#000000;fill-rule:evenodd;stroke:none"
         id="path96" />
      <path
         d="M 275.73568,386.73769 C 275.73568,376.72091 259.35708,376.84694 259.35708,371.06901 C 259.35708,368.20994 261.57272,366.65102 264.4252,366.65102 C 267.80837,366.65102 269.63264,368.46859 269.55969,371.91812 L 275.47692,371.91812 C 275.92797,365.41053 270.92621,362.61772 265.08192,362.61772 C 255.8413,362.61772 253.76497,368.15015 253.76497,371.58641 C 253.76497,381.40423 270.15004,381.53026 270.15004,387.38124 C 270.15004,390.76442 267.67576,392.38959 264.49156,392.38959 C 259.09843,392.38959 259.02538,387.97159 259.02538,386.08767 L 252.9888,386.08767 C 252.78983,393.62349 257.21439,396.74132 264.29259,396.74132 C 270.79359,396.74132 275.73568,393.9485 275.73568,386.73769"
         style="fill:#000000;fill-rule:nonzero;stroke:none"
         id="path100" />
      <path
         d="M 305.49427,396.09119 L 305.49427,373.99445 C 305.49427,372.75397 305.75303,369.5101 307.31194,368.20994 C 308.74472,367.0424 309.32849,366.97604 311.34514,366.97604 C 315.63051,366.97604 316.5393,370.0275 316.5393,373.34431 L 316.5393,396.09119 L 321.87276,396.09119 L 321.87276,371.13538 C 321.87276,363.40047 316.3469,362.61772 312.90406,362.61772 C 309.91895,362.61772 306.92046,363.33421 305.10289,366.84341 C 303.86899,363.8582 300.41957,362.61772 297.42777,362.61772 C 293.60014,362.61772 290.80073,363.8582 289.24182,367.36741 L 289.10909,367.36741 L 289.10909,363.27443 L 283.4572,363.27443 C 283.6496,365.54316 283.78232,367.81857 283.78232,370.09387 L 283.78232,396.09119 L 289.10909,396.09119 L 289.10909,373.99445 C 289.10909,372.75397 289.36785,370.81025 290.34958,369.17839 C 291.12575,367.95118 293.34137,366.97604 294.95996,366.97604 C 299.25202,366.97604 300.16081,370.0275 300.16081,373.34431 L 300.16081,396.09119 L 305.49427,396.09119"
         style="fill:#000000;fill-rule:nonzero;stroke:none"
         id="path104" />
      <path
         d="M 331.27266,396.11773 L 336.64593,396.11773 L 336.64593,363.28112 L 331.27266,363.28112 L 331.27266,396.11773 z M 336.97763,349.15139 L 330.94106,349.15139 L 330.94106,354.85637 L 336.97763,354.85637 L 336.97763,349.15139 z "
         style="fill:#000000;fill-rule:evenodd;stroke:none"
         id="path106" />
      <path
         d="M 369.43613,396.09119 L 369.43613,373.34431 C 369.43613,366.84341 367.68493,362.61772 360.66652,362.61772 C 356.43424,362.61772 353.96643,363.79184 351.8901,367.49344 L 351.63146,367.49344 L 351.63146,363.27443 L 345.97956,363.27443 C 346.16528,365.54316 346.29131,367.81857 346.29131,370.09387 L 346.29131,396.09119 L 351.63146,396.09119 L 351.63146,376.65454 C 351.63146,372.17688 352.47389,366.97604 358.31817,366.97604 C 362.87546,366.97604 364.10936,369.83511 364.10936,373.34431 L 364.10936,396.09119 L 369.43613,396.09119"
         style="fill:#000000;fill-rule:nonzero;stroke:none"
         id="path110" />
      <path
         d="M 378.83614,396.11773 L 384.20942,396.11773 L 384.20942,363.28112 L 378.83614,363.28112 L 378.83614,396.11773 z M 384.54102,349.15139 L 378.50443,349.15139 L 378.50443,354.85637 L 384.54102,354.85637 L 384.54102,349.15139 z "
         style="fill:#000000;fill-rule:evenodd;stroke:none"
         id="path112" />
      <path
         d="M 414.47883,386.73769 C 414.47883,376.72091 398.10025,376.84694 398.10025,371.06901 C 398.10025,368.20994 400.30929,366.65102 403.16836,366.65102 C 406.55154,366.65102 408.36921,368.46859 408.30284,371.91812 L 414.22008,371.91812 C 414.67112,365.41053 409.66278,362.61772 403.8185,362.61772 C 394.59104,362.61772 392.51471,368.15015 392.51471,371.58641 C 392.51471,381.40423 408.88661,381.53026 408.88661,387.38124 C 408.88661,390.76442 406.41891,392.38959 403.23473,392.38959 C 397.8349,392.38959 397.77523,387.97159 397.77523,386.08767 L 391.73197,386.08767 C 391.53957,393.62349 395.95097,396.74132 403.04233,396.74132 C 409.53675,396.74132 414.47883,393.9485 414.47883,386.73769"
         style="fill:#000000;fill-rule:nonzero;stroke:none"
         id="path116" />
      <path
         d="M 418.03444,363.27443 L 418.03444,367.30104 L 423.43426,367.30104 L 423.43426,390.63839 C 423.43426,394.40623 425.70298,396.48256 430.77769,396.48256 C 432.53559,396.48256 434.2869,396.09119 436.0449,395.95856 L 436.0449,391.86559 C 434.87735,391.99821 434.02824,392.13093 433.64345,392.13093 C 428.76104,392.13093 428.76104,389.46415 428.76104,387.38124 L 428.76104,367.30104 L 435.91875,367.30104 L 435.91875,363.27443 L 428.76104,363.27443 L 428.76104,354.5578 L 423.43426,356.96582 L 423.43426,363.27443 L 418.03444,363.27443"
         style="fill:#000000;fill-rule:nonzero;stroke:none"
         id="path120" />
      <path
         d="M 446.1015,377.37103 C 446.16787,368.2762 448.96726,366.65102 452.35043,366.65102 C 456.24433,366.65102 458.91111,367.81857 458.91111,377.37103 L 446.1015,377.37103 z M 464.56301,381.40423 L 464.56301,378.61152 C 464.56301,367.75878 462.22134,362.61772 452.86115,362.61772 C 441.48443,362.61772 440.38325,370.55161 440.38325,380.17044 C 440.38325,394.665 445.90253,396.74132 452.86115,396.74132 C 459.75353,396.74132 464.23789,393.43109 464.30424,386.15392 L 458.45337,386.15392 C 458.25439,389.46415 456.37706,392.38959 452.73512,392.38959 C 448.5692,392.38959 446.1015,390.56533 446.1015,381.40423 L 464.56301,381.40423"
         style="fill:#000000;fill-rule:evenodd;stroke:none"
         id="path124" />
      <path
         d="M 477.7573,363.27443 L 472.43053,363.27443 L 472.43053,396.09119 L 477.7573,396.09119 L 477.7573,376.72091 C 477.7573,372.30949 479.25654,367.81857 485.17378,367.81857 C 486.14892,367.81857 487.0577,368.01754 488.02626,368.15015 L 488.02626,362.61772 C 482.83211,362.61772 480.09907,363.20149 477.89003,368.20994 L 477.7573,368.20994 L 477.7573,363.27443"
         style="fill:#000000;fill-rule:nonzero;stroke:none"
         id="path128" />
      <path
         d="M 493.73124,396.11773 L 499.03816,396.11773 L 499.03816,363.28112 L 493.73124,363.28112 L 493.73124,396.11773 z M 499.36986,349.15139 L 493.39954,349.15139 L 493.39954,354.85637 L 499.36986,354.85637 L 499.36986,349.15139 z "
         style="fill:#000000;fill-rule:evenodd;stroke:none"
         id="path130" />
      <path
         d="M 525.81165,385.04617 C 525.81165,390.50566 522.24277,392.64835 519.38359,392.64835 C 515.61573,392.64835 513.79148,389.98156 513.79148,386.02131 L 513.79148,363.27443 L 508.4646,363.27443 L 508.4646,388.29003 C 508.4646,393.88225 511.58243,396.74132 517.30726,396.74132 C 520.75012,396.74132 523.86794,395.12273 525.61926,392.13093 L 525.81165,392.13093 L 525.81165,396.09119 L 531.47012,396.09119 C 531.27773,393.82246 531.15169,391.54716 531.15169,389.26517 L 531.15169,363.27443 L 525.81165,363.27443 L 525.81165,385.04617"
         style="fill:#000000;fill-rule:nonzero;stroke:none"
         id="path134" />
      <path
         d="M 562.40953,396.09119 L 562.40953,373.99445 C 562.40953,372.75397 562.67487,369.5101 564.23379,368.20994 C 565.66666,367.0424 566.25045,366.97604 568.26709,366.97604 C 572.55246,366.97604 573.46124,370.0275 573.46124,373.34431 L 573.46124,396.09119 L 578.8014,396.09119 L 578.8014,371.13538 C 578.8014,363.40047 573.26886,362.61772 569.826,362.61772 C 566.83421,362.61772 563.84241,363.33421 562.02485,366.84341 C 560.79094,363.8582 557.34141,362.61772 554.34972,362.61772 C 550.52209,362.61772 547.72926,363.8582 546.16377,367.36741 L 546.03104,367.36741 L 546.03104,363.27443 L 540.38584,363.27443 C 540.57155,365.54316 540.70417,367.81857 540.70417,370.09387 L 540.70417,396.09119 L 546.03104,396.09119 L 546.03104,373.99445 C 546.03104,372.75397 546.28981,370.81025 547.27153,369.17839 C 548.05428,367.95118 550.26333,366.97604 551.8886,366.97604 C 556.17397,366.97604 557.08276,370.0275 557.08276,373.34431 L 557.08276,396.09119 L 562.40953,396.09119"
         style="fill:#000000;fill-rule:nonzero;stroke:none"
         id="path138" />
      <path
         d="M 28.512085,697.8833 L 49.076447,697.8833 L 49.076447,581.7941 L 28.512085,581.7941 L 28.512085,697.8833 z "
         style="fill:#f7d100;fill-opacity:1;fill-rule:nonzero;stroke:none"
         id="path140" />
      <path
         d="M 28.512085,581.7941 L 49.076447,581.7941 L 49.076447,465.37321 L 28.512085,465.37321 L 28.512085,581.7941 z "
         style="fill:#e3001b;fill-opacity:1;fill-rule:nonzero;stroke:none"
         id="path142" />
      <path
         d="M 28.512085,465.77127 L 49.076447,465.77127 L 49.076447,349.68207 L 28.512085,349.68207 L 28.512085,465.77127 z "
         style="fill:#000000;fill-rule:nonzero;stroke:none"
         id="path144" />
      <path
         d="M -88.93694,465.77127 L -88.93694,465.77127 z M -88.93694,465.81109 L -88.93694,465.81109 z M -88.943627,465.82436 L -88.943627,465.82436 z M -88.943627,465.74473 L -88.943627,465.74473 z M -35.655313,369.29785 C -35.655313,362.68409 -40.471366,357.4501 -42.162995,355.9774 L -43.383525,356.25602 C -41.579226,358.4518 -38.408305,362.13344 -38.408305,367.00258 C -38.408305,376.58818 -48.54455,384.92671 -60.107094,385.08598 C -60.020765,386.0744 -60.027463,386.94336 -60.027463,387.68641 C -60.027463,389.0595 -60.113673,390.39948 -60.279526,391.69974 C -47.151492,391.46095 -35.655313,380.79403 -35.655313,369.29785 z M -53.758674,448.70284 C -59.364051,448.70284 -60.57799,448.11907 -62.057377,448.11907 C -62.999288,448.11907 -63.908184,448.21196 -63.908184,449.55853 C -63.908184,450.48728 -62.8534,451.84721 -61.904802,452.56359 C -60.597954,451.25674 -58.780282,450.96486 -55.861532,450.96486 C -54.495018,450.96486 -52.637525,451.23689 -51.814958,451.34965 C -51.927724,452.15236 -52.093577,453.19376 -52.093577,454.65988 C -52.093577,455.43605 -52.060442,456.33156 -52.060442,457.28674 C -52.060442,460.59697 -52.544628,462.35487 -53.705575,463.67498 C -53.453511,463.82757 -52.78352,463.96686 -52.385461,463.96686 C -50.249468,463.96686 -49.692243,462.87238 -49.692243,457.30001 C -49.692243,455.61506 -49.552933,454.06284 -49.552933,453.6582 C -46.561132,455.94019 -43.502977,460.01988 -43.502977,462.97846 C -42.521244,462.481 -41.373563,461.00162 -41.373563,459.88717 C -41.373563,457.8772 -44.73688,454.8854 -48.292487,451.26344 C -47.801614,451.15068 -46.481501,450.76588 -45.393594,450.76588 C -42.587502,450.76588 -40.325477,451.23689 -39.005352,452.78912 C -38.494528,452.21862 -38.056754,450.5204 -38.056754,449.55195 C -38.056754,447.87358 -39.01863,447.93336 -39.715153,447.93336 C -42.700268,447.93336 -46.382013,448.39109 -49.022144,448.82887 C -49.977429,447.55525 -56.087064,439.28967 -57.672518,434.88485 C -58.123569,434.7191 -58.488398,434.58638 -59.23144,434.58638 C -60.697442,434.58638 -61.082235,435.61461 -61.466921,437.02095 C -58.097025,441.10723 -54.859847,445.55188 -53.758674,448.70284 z M -87.205597,437.02095 C -87.590379,435.61461 -87.968485,434.58638 -89.441078,434.58638 C -90.1907,434.58638 -90.54895,434.7191 -90.99341,434.88485 C -92.585452,439.28967 -98.695086,447.55525 -99.656974,448.82887 C -102.29054,448.39109 -105.97222,447.93336 -108.95737,447.93336 C -109.65391,447.93336 -110.6158,447.87358 -110.6158,449.55195 C -110.6158,450.5204 -110.1846,452.21862 -109.65391,452.78912 C -108.35371,451.23689 -106.07836,450.76588 -103.28558,450.76588 C -102.19104,450.76588 -100.87758,451.15068 -100.38004,451.26344 C -103.94232,454.8854 -107.30559,457.8772 -107.30559,459.88717 C -107.30559,461.00162 -106.1447,462.481 -105.16955,462.97846 C -105.16955,460.01988 -102.10479,455.94019 -99.113014,453.6582 C -99.113014,454.06284 -98.973705,455.61506 -98.973705,457.30001 C -98.973705,462.87238 -98.423118,463.96686 -96.287078,463.96686 C -95.895681,463.96686 -95.225678,463.82757 -94.966964,463.67498 C -96.127864,462.35487 -96.612121,460.59697 -96.612121,457.28674 C -96.612121,456.33156 -96.57895,455.43605 -96.57895,454.65988 C -96.57895,453.19376 -96.744791,452.15236 -96.857557,451.34965 C -96.034991,451.23689 -94.177604,450.96486 -92.810971,450.96486 C -89.892237,450.96486 -88.081251,451.25674 -86.761126,452.56359 C -85.812528,451.84721 -84.764442,450.48728 -84.764442,449.55853 C -84.764442,448.21196 -85.673218,448.11907 -86.621828,448.11907 C -88.101108,448.11907 -89.308468,448.70284 -94.920528,448.70284 C -93.812668,445.55188 -90.582073,441.10723 -87.205597,437.02095 z M -110.2642,367.00258 C -110.2642,362.13344 -107.08667,358.4518 -105.29559,356.25602 L -106.50956,355.9774 C -108.20776,357.4501 -113.01718,362.68409 -113.01718,369.29785 C -113.01718,380.87355 -101.35519,391.62011 -88.107794,391.70633 C -88.253683,390.45257 -88.333314,389.11918 -88.333314,387.68641 C -88.333314,386.79079 -88.293505,385.92182 -88.22056,385.09256 C -99.928954,385.09256 -110.2642,376.68777 -110.2642,367.00258 z M -74.667912,358.08697 C -74.057694,356.70048 -73.248299,355.04866 -73.248299,353.23768 C -73.248299,348.21607 -77.414325,345.82131 -82.986579,345.82131 C -85.845651,345.82131 -87.291808,346.74995 -87.291808,347.6787 C -87.291808,348.60076 -86.349789,350.64395 -85.978381,351.27412 C -84.956731,350.82307 -83.092658,350.27243 -82.018017,350.27243 C -78.19707,350.27243 -75.331312,354.5578 -74.667912,358.08697 z M -71.934872,351.65891 C -68.664463,352.30236 -66.448827,348.14302 -69.546803,347.3935 C -69.11561,348.77329 -71.198516,349.74175 -71.198516,349.74175 C -71.198516,349.74175 -71.994538,347.89764 -70.966417,346.85613 C -72.856926,345.92738 -73.334616,347.05511 -73.37433,348.22265 C -72.638093,349.21775 -72.140534,350.37861 -71.934872,351.65891 z M -61.380711,380.18371 C -60.863295,380.21684 -60.365748,380.2368 -59.848332,380.2368 C -50.673964,380.2368 -41.579226,374.31288 -41.579226,366.7107 C -41.579226,362.66412 -43.396803,359.8249 -45.658935,356.6939 C -46.972361,356.90616 -48.173034,357.0255 -49.121739,357.0255 C -53.280972,357.0255 -55.529838,354.80329 -55.695691,352.62079 C -55.695691,350.65063 -54.096959,349.16467 -51.609296,349.16467 C -47.755118,349.16467 -40.723429,352.76678 -33.632074,352.76678 C -34.335295,353.29746 -35.496147,353.84799 -36.895903,354.37867 C -32.736563,358.1201 -29.963702,363.12186 -28.908929,368.48186 L -18.049606,385.86214 C -16.225355,388.76761 -12.371178,394.46591 -6.5667052,398.91714 C -13.585116,398.91714 -18.242003,399.08299 -24.179086,389.68967 L -29.744761,380.78734 C -30.155991,381.93491 -30.666828,383.06264 -31.263863,384.16392 L -20.198877,401.8758 C -18.354769,404.80782 -14.540401,410.4664 -8.7028054,414.93748 C -15.727796,414.93748 -20.384695,415.10992 -26.321778,405.71002 L -35.84771,390.45925 C -36.564197,391.22215 -37.313819,391.95839 -38.109842,392.6682 L -24.663367,414.18786 C -22.812572,417.12656 -19.011482,422.76518 -13.173887,427.24953 C -20.198877,427.24953 -24.855764,427.41538 -30.792859,418.02208 L -43.89435,397.03979 C -44.763424,397.59043 -45.645657,398.11452 -46.554445,398.61866 L -30.560641,424.21134 C -28.716533,427.15663 -24.922129,432.78198 -19.071149,437.26643 C -26.08956,437.26643 -30.753038,437.43218 -36.690228,428.03897 L -53.15494,401.68341 C -54.130082,402.05492 -55.125188,402.40648 -56.126873,402.73149 L -37.512795,432.52991 C -35.701821,435.41564 -31.814509,441.14046 -26.029893,445.57842 C -33.054991,445.57842 -37.711783,445.74417 -43.648973,436.34427 L -63.48357,404.58899 L -64.080616,404.70833 C -64.624576,406.41983 -65.002671,408.02514 -65.002671,409.62387 C -65.002671,419.60095 -58.455275,428.4038 -50.594333,435.20996 C -51.098578,435.4289 -51.974125,435.50844 -52.78352,435.50844 C -54.408701,435.50844 -55.450207,435.41564 -56.193131,435.2896 C -54.3623,439.42898 -50.455023,444.76902 -48.478185,447.54198 C -45.910998,447.07756 -42.169586,446.71273 -39.715153,446.71273 C -37.154557,446.71273 -36.869359,448.21196 -36.869359,449.55195 C -36.869359,451.88034 -37.957266,453.74441 -39.217606,454.77265 C -39.701887,453.57198 -40.657171,451.98651 -45.393594,451.98651 L -45.871188,452.01307 C -44.478119,453.55201 -40.146347,457.06122 -40.146347,459.88717 C -40.146347,461.74466 -42.19613,464.55733 -44.896035,464.55733 C -44.73688,463.94702 -44.763424,463.39637 -44.763424,462.97846 C -44.763424,460.69645 -46.786663,458.02309 -48.491463,456.15244 C -48.451641,456.70967 -48.464919,456.64999 -48.464919,457.30001 C -48.464919,462.69984 -48.955887,465.1875 -52.385461,465.1875 C -54.070415,465.1875 -55.231267,464.26545 -55.629326,463.99342 C -53.407004,461.93036 -53.287659,460.31836 -53.287659,457.28674 L -53.314202,454.65988 C -53.320793,453.96993 -53.307516,453.05446 -53.19475,452.39116 C -54.421967,452.21862 -54.919525,452.22531 -55.861532,452.22531 C -55.861532,452.22531 -60.743843,451.84051 -61.904802,454.37458 C -63.238086,453.16733 -65.155258,451.45584 -65.155258,449.55853 C -65.155258,448.30476 -64.564897,446.89185 -62.057377,446.89185 C -61.102093,446.89185 -58.110291,447.4822 -55.616048,447.4822 C -56.27946,445.98306 -59.277841,441.60479 -61.864992,438.42728 C -62.262944,439.66119 -62.873257,441.00775 -64.233192,442.08907 C -64.418902,440.03929 -65.612983,433.58469 -68.810459,429.81672 C -69.181867,432.35747 -69.686113,434.97775 -69.686113,440.49703 C -69.686113,453.93012 -66.455514,463.84753 -59.596269,465.73804 C -60.49178,467.29695 -62.375817,468.69002 -64.332691,468.69002 C -66.8402,468.69002 -68.206726,465.8509 -69.599784,463.17754 C -70.329548,465.15438 -72.326244,469.99028 -74.336313,469.99028 C -76.339588,469.99028 -78.349657,465.15438 -79.072735,463.17754 C -80.465793,465.8509 -81.832319,468.69002 -84.339827,468.69002 C -86.296809,468.69002 -88.180739,467.29695 -89.06967,465.73804 C -82.223691,463.84753 -78.993092,453.93012 -78.993092,440.49703 C -78.993092,434.97775 -79.490651,432.35747 -79.86206,429.81672 C -83.052944,433.58469 -84.260197,440.03929 -84.446014,442.08907 C -85.799262,441.00775 -86.416154,439.66119 -86.807526,438.42728 C -89.394678,441.60479 -92.386476,445.98306 -93.063153,447.4822 C -90.555636,447.4822 -87.570426,446.89185 -86.621828,446.89185 C -84.107621,446.89185 -83.517261,448.30476 -83.517261,449.55853 C -83.517261,451.45584 -85.441012,453.16733 -86.761126,454.37458 C -87.935255,451.84051 -92.810971,452.22531 -92.810971,452.22531 C -93.75299,452.22531 -94.24385,452.21862 -95.477753,452.39116 C -95.371626,453.05446 -95.351722,453.96993 -95.364988,454.65988 L -95.384892,457.28674 C -95.384892,460.31836 -95.265488,461.93036 -93.03661,463.99342 C -93.434562,464.26545 -94.6021,465.1875 -96.287078,465.1875 C -99.710037,465.1875 -100.20093,462.69984 -100.20093,457.30001 C -100.20093,456.64999 -100.22747,456.70967 -100.18103,456.15244 C -101.89253,458.02309 -103.90915,460.69645 -103.90915,462.97846 C -103.90915,463.39637 -103.93568,463.94702 -103.77648,464.55733 C -106.46975,464.55733 -108.52618,461.74466 -108.52618,459.88717 C -108.52618,457.06122 -104.18777,453.55201 -102.80797,452.01307 L -103.28558,451.98651 C -108.01539,451.98651 -108.97728,453.57198 -109.4549,454.77265 C -110.72192,453.74441 -111.80985,451.88034 -111.80985,449.55195 C -111.80985,448.21196 -111.51797,446.71273 -108.95737,446.71273 C -106.50292,446.71273 -102.76153,447.07756 -100.18767,447.54198 C -98.210829,444.76902 -94.310215,439.42898 -92.485964,435.2896 C -93.222308,435.41564 -94.263814,435.50844 -95.889054,435.50844 C -96.698355,435.50844 -97.573997,435.4289 -98.078159,435.20996 C -90.217244,428.4038 -83.676427,419.60095 -83.676427,409.62387 C -83.676427,408.02514 -84.047943,406.41983 -84.585311,404.70833 L -85.182358,404.58899 L -105.0236,436.34427 C -110.96074,445.74417 -115.62421,445.57842 -122.63599,445.57842 C -116.85807,441.14046 -112.97074,435.41564 -111.15976,432.52991 L -92.539051,402.73149 C -93.547327,402.40648 -94.535747,402.05492 -95.517563,401.68341 L -111.98232,428.03897 C -117.91947,437.43218 -122.58293,437.26643 -129.59472,437.26643 C -123.75708,432.78198 -119.96263,427.15663 -118.11184,424.21134 L -102.11807,398.61866 C -103.03351,398.11452 -103.91579,397.59043 -104.77817,397.03979 L -117.88629,418.02208 C -123.82343,427.41538 -128.47363,427.24953 -135.49869,427.24953 C -129.65442,422.76518 -125.85997,417.12656 -124.0158,414.18786 L -110.56936,392.6682 C -111.35877,391.95839 -112.115,391.22215 -112.82479,390.45925 L -122.35075,405.71002 C -128.28788,415.10992 -132.94472,414.93748 -139.96977,414.93748 C -134.13214,410.4664 -130.31778,404.80782 -128.47363,401.8758 L -117.4153,384.16392 C -118.0057,383.06264 -118.51649,381.93491 -118.92114,380.78734 L -124.48679,389.68967 C -130.43055,399.08299 -135.08739,398.91714 -142.10581,398.91714 C -136.30135,394.46591 -132.4472,388.76761 -130.61631,385.86214 L -119.76362,368.48186 C -118.70887,363.12186 -115.92936,358.1201 -111.78331,354.37867 C -113.16975,353.84799 -114.33728,353.29746 -115.03381,352.76678 C -107.94906,352.76678 -100.924,349.16467 -97.063208,349.16467 C -94.568977,349.16467 -92.976824,350.65063 -92.976824,352.62079 C -93.136098,354.80329 -95.391519,357.0255 -99.550835,357.0255 C -100.49945,357.0255 -101.69351,356.90616 -103.02024,356.6939 C -105.27569,359.8249 -107.08667,362.66412 -107.08667,366.7107 C -107.08667,374.31288 -98.00519,380.2368 -88.824186,380.2368 C -88.300191,380.2368 -87.809224,380.21684 -87.291808,380.18371 C -85.474242,374.02768 -81.606787,369.98768 -78.508811,366.0407 C -82.223691,364.68746 -86.356487,361.17156 -86.356487,359.57283 C -85.878893,359.30091 -78.780851,361.52981 -78.051074,361.72879 C -77.898499,361.76861 -77.745923,361.78188 -77.573491,361.72879 C -76.71779,361.47013 -75.988025,360.20969 -75.988025,360.08366 C -76.744333,359.95762 -81.202149,359.38054 -84.246919,358.26598 C -86.56215,357.42356 -87.729688,355.88451 -87.729688,355.30742 C -86.986657,355.18797 -84.173974,356.66736 -80.034599,356.66736 C -78.502232,356.66736 -78.210347,356.60099 -76.691246,356.42188 C -77.75261,353.87455 -79.762572,351.72527 -82.018017,351.72527 C -82.926913,351.72527 -84.903739,352.29577 -86.568729,353.13161 C -87.723001,351.3339 -88.744544,348.96569 -88.744544,347.6787 C -88.744544,346.1596 -87.232141,344.37516 -82.986579,344.37516 C -81.792497,344.37516 -80.691312,344.47465 -79.656504,344.66704 C -78.827239,344.81962 -78.130717,345.00533 -77.381095,345.29721 C -77.434182,345.19772 -77.474003,344.97878 -77.474003,344.75984 C -77.474003,344.18276 -76.936623,343.55259 -74.939939,343.55259 C -71.443999,343.55259 -67.861849,344.70018 -63.470304,344.70018 C -62.329309,344.70018 -61.55983,344.66704 -60.89643,344.38174 C -61.188315,345.26409 -62.415519,346.55097 -63.549934,347.59248 C -62.8534,348.55435 -61.035728,350.8562 -61.035728,354.57777 C -61.035728,360.55467 -64.976127,365.49007 -64.976127,371.54001 C -64.976127,375.12886 -62.209964,378.29968 -61.380711,380.18371"
         style="fill:#000000;fill-rule:evenodd;stroke:none"
         id="path148" />
    </g>
  </g>
</svg>
