<?xml version="1.0" encoding="UTF-8" standalone="no"?>
<svg
   xmlns:svg="http://www.w3.org/2000/svg"
   xmlns="http://www.w3.org/2000/svg"
   version="1.1"
   id="svg4547"
   viewBox="0 0 774.88123 125.28348"
   height="125.28348"
   width="774.88123">
  <defs
     id="defs4549" />
  <g
     transform="translate(61.726334,-266.86337)"
     id="layer1">
    <path
       d="m 10.972666,382.77552 c -0.6476,1.49145 -1.8152503,3.09084 -3.5323873,4.37133 -2.399075,-1.78582 -3.812025,-4.3517 -3.812025,-4.3517 -2.76703799,0.57401 -5.534075,-0.29437 -5.534075,-0.29437 -3.777688,-1.28048 -4.145638,-2.36965 -4.145638,-2.36965 6.47603801,-2.2617 8.428663,-9.20872 9.037013,-12.37806 1.383512,-8.26185 0.260025,-19.17299 -0.09813,-22.63179 -1.93789999,2.13415 -3.72371299,9.1057 -3.72371299,9.1057 -0.132475,-0.30417 -0.72120001,-1.82996 -0.93216201,-2.23717 -0.417013,0.0245 -1.48655,1.25106 -2.070375,1.97716 -2.114525,2.57569 -3.3116,4.71475 -4.832488,7.44254 -1.5208867,2.72287 -1.4178617,2.68854 -1.6288247,3.20857 1.3540747,-0.99593 3.3508627,-2.07036 4.5479377,-2.51191 1.202,-0.43665 2.040937,-0.81441 2.4972,-0.67704 0.451362,0.13737 0.691762,0.57402 0.907625,0.91253 0.8782,0.36305 1.82507501,1.02046 1.96735001,1.2069 0.740812,0.888 0.799687,1.56504 1.01065,3.10065 -0.0295,0.0196 -0.210963,0 -0.436638,-0.39249 -0.784975,-1.3688 -1.45220001,-1.42767 -1.69260001,-1.46692 0.0785,1.045 -0.103,1.19218 -0.206062,1.40315 -0.299263,0.58872 -2.13905,0.36305 -3.169325,0.26492 -2.060563,-0.22077 -3.242925,0.0245 -4.047525,0.3238 -2.0262127,0.75554 -2.4039877,2.47266 -2.4530497,2.64929 -0.554388,1.96734 -0.417013,3.40974 -0.264925,4.80306 0.152087,1.38843 0.799687,2.664 0.799687,2.664 0.353238,0.92725 0.44155,1.63374 0.215875,2.17831 -0.225687,0.54458 -0.691762,0.8929 -0.691762,0.8929 -0.2453,0.11288 -0.892913,0.37778 -0.892913,0.37778 -0.20115,0.42682 0.981225,1.87902 1.2854,2.48247 -2.801375,-0.55928 -3.208587,-1.80052 -3.375387,-2.19301 -0.632888,0.0932 -1.25105,-0.45627 -1.403138,-1.2903 -0.157,-0.83895 0.44645,-1.87904 0.421913,-3.08594 -0.01963,-1.20198 -0.176613,-1.90846 -0.603438,-3.71881 -0.971412,1.86921 -2.668912,4.30264 -3.439175,5.20536 -0.77025,0.90272 -1.4522,0.75063 -1.672975,0.71629 -0.225675,-0.0344 -0.824225,-0.22569 -1.0499,-0.27965 -0.515137,1.1284 -0.814412,1.65335 -1.427675,2.64439 -0.27965,-1.99679 -0.0245,-3.03688 -0.0245,-3.03688 l 0.08837,-0.0441 c -0.054,-0.6378 0.0785,-0.65743 0.127563,-1.26086 -0.407213,-1.17257 -0.181525,-1.48165 -0.103,-1.6877 0.0785,-0.20115 0.657412,-0.83894 0.657412,-0.83894 0.313987,-0.30909 0.937062,-0.73101 1.432575,-1.10388 0.367962,-0.27473 0.574012,-0.49061 1.00085,-0.78006 0.995925,-0.68195 1.1284,-0.89291 1.182362,-1.02537 -2.163587,0.25511 -3.188962,0.46607 -5.009112,0.78006 -1.820163,0.31399 -2.6591,0.19134 -3.09575,-0.01 -0.431738,-0.20605 -0.60345,-1.19709 -0.60345,-1.19709 l -0.20115,0 c -0.858563,0.91744 -1.305013,1.49636 -1.707313,1.89866 0.269838,-2.61495 0.613263,-2.9829 1.3737,-3.86108 0.76045,-0.8831 0.902725,-1.26578 0.995938,-1.6877 0.230587,-1.22653 0.912537,-1.16274 1.16275,-1.10878 1.236325,0.26984 1.368787,0.66233 2.119425,0.8046 2.1783,0.55929 4.2732,0.60345 5.671437,0.53966 1.393325,-0.0686 1.496363,-0.22567 1.761288,-0.46116 0.60345,-0.50042 1.280487,-1.65826 1.280487,-1.65826 4.621538,-6.78021 8.1980747,-16.36671 8.5758507,-17.54908 -1.24615,0 -2.296051,-0.35815 -2.296051,-0.35815 0,0 1.339363,-1.09406 2.13905,-1.8496 0.8046,-0.76043 2.978,-3.4637 2.978,-3.4637 2.678725,-3.20857 2.688538,-5.68615 2.688538,-5.68615 0,0 0.2453,-2.00658 0.30907501,-2.54136 0.421925,-4.60681 -0.56910001,-8.92907 -1.06461201,-9.64046 -1.839788,-2.69344 -3.25765,0.6378 -3.25765,0.6378 -2.835703,6.94699 -5.8823897,17.64227 -10.7001647,27.84694 -2.61985,5.38688 -5.529163,5.62238 -5.529163,5.62238 -2.830812,0.99102 -5.2397,0.26002 -5.2397,0.26002 2.3402,-1.70241 4.886463,-7.93806 6.377913,-11.7599 1.486537,-3.82675 7.933137,-21.40036 7.933137,-22.03815 0.210963,-3.12027 -2.124325,-2.26661 -3.046675,-0.0736 -5.524262,13.4623 -13.393625,30.20187 -13.393625,30.20187 -1.780912,3.53239 -3.159525,5.9609 -5.097425,7.42291 -3.689375,2.78667 -7.908612,2.45305 -10.327312,2.15869 3.4637,-1.61901 5.220075,-6.02469 6.834175,-8.8604 1.619012,-2.83572 5.126862,-9.89559 5.892212,-11.51459 0.76535,-1.61901 10.3911,-20.63992 12.098413,-25.22711 1.712225,-4.5872 -0.495513,-3.50786 -1.932988,-1.66316 -1.437487,1.83977 -10.925862,18.52539 -11.740275,20.10024 -0.8046,1.57486 -5.0778,10.70508 -9.890675,13.76158 -5.126863,3.28218 -9.041925,0.45137 -9.041925,0.45137 0,0 2.472675,-1.66318 3.331237,-2.34022 2.516826,-2.0213 4.047526,-4.71965 6.250351,-7.95767 8.497349,-13.8548 16.641462,-27.66053 17.853262,-30.17735 1.2118,-2.51683 -1.079338,-3.10556 -2.428513,-1.07934 -8.276575,12.36825 -15.336437,21.31695 -15.336437,21.31695 -2.968187,3.99846 -9.081163,5.03855 -13.58005,4.2732 2.605125,-1.98205 6.878337,-7.02061 6.878337,-7.02061 12.863763,-15.9595 20.061001,-26.16908 20.556513,-27.02764 0.490613,-0.85366 -0.04913,-1.43749 -0.7212,-0.89781 -2.565887,2.29114 -7.197225,6.74587 -12.726387,11.92179 -5.534076,5.16611 -11.872738,3.64032 -14.708463,1.9281 3.105562,-1.1235 6.790025,-4.09168 10.74925,-8.00184 11.6912,-10.61186 17.4068,-17.53926 17.85325,-18.12309 -2.610037,-0.27474 -2.610037,-2.24699 -2.610037,-2.24699 l 1.260862,-0.0491 c 4.724563,-0.35815 4.2732,-0.62797 5.666538,-1.34917 1.393324,-0.7212 4.003362,-2.83081 5.534062,-3.05649 3.4637,-0.53967 6.97155,2.29114 6.97155,5.12686 0,3.37539 -3.601063,5.30348 -4.410563,5.84315 -0.809512,0.54458 -1.035187,0.8095 -1.437487,1.5307 -0.407213,0.72119 -0.269837,1.97715 0.8095,3.23802 2.340213,2.78666 3.0565,4.09167 3.866,5.89221 3.4195497,-0.58383 9.8514247,-0.31399 9.8514247,-0.31399 1.5258,0.18153 2.24698701,0.53968 2.24698701,0.53968 0,0 0.137376,0.0441 0.358151,-0.7212 0.721187,-2.92403 1.12839999,-4.13584 1.75637499,-5.17102 0.627987,-1.03518 3.326337,-3.23802 3.596162,-3.59616 0.269837,-0.35815 0.67705,-0.85366 0.809512,-1.70732 -1.530699,0.22077 -4.003375,0.49061 -6.60849999,-0.18643 -2.61005001,-0.67214 -3.01724901,-3.23311 -3.19387501,-4.76381 1.211813,0.94687 3.10065001,1.48164 4.768725,1.84469 1.663163,0.35813 1.795625,-0.22569 1.883938,-0.58383 0.09325,-0.35815 0.049,-0.90272 0,-1.75639 -8.992863,0 -11.23985,-2.29113 -11.23985,-2.29113 0,0 2.246987,-0.22569 4.719662,-0.13738 2.472663,0.0884 5.396688,-0.0441 6.25035,-0.58382 -1.123487,-2.7425 -2.37944999,-3.37539 -3.01233699,-3.28218 -2.92402501,0.4023 -3.99846301,2.06546 -4.81287501,3.10065 -0.760438,-1.16765 -1.241238,-3.2282 -0.20115,-5.75975 1.108775,-2.70324 6.09827501,-3.24782 6.412262,-3.27726 12.8883003,-1.34427 15.0911253,-2.54626 15.0911253,-2.54626 l 0.01963,-0.0147 c -1.2952,0.97631 -1.780912,1.88884 -1.32955,2.46776 2.183213,3.53238 3.552013,5.73522 4.0279,10.20957 1.1235,5.84806 -0.750625,18.35858 -1.035187,19.21715 7.300262,-1.33937 9.272512,-0.68685 9.272512,-0.68685 0.8095,-1.80054 1.5307,-3.10555 3.8709,-5.89222 1.079351,-1.26086 1.211813,-2.51682 0.809513,-3.23801 -0.407213,-0.7212 -0.632888,-0.98612 -1.442388,-1.5307 -0.809512,-0.53967 -4.405675,-2.46776 -4.405675,-5.84315 0,-2.83572 3.50785,-5.66654 6.97155,-5.12686 1.5258,0.22567 4.135838,2.33529 5.529163,3.05649 1.398237,0.7212 0.946875,0.99102 5.666535,1.34917 l 1.26086,0.0491 c 0,0 0,1.97225 -2.610033,2.24699 0.451363,0.58382 6.162053,7.51122 17.858163,18.12309 3.95431,3.91016 7.64369,6.87833 10.74434,8.00183 -2.83082,1.71223 -9.17439,3.23802 -14.70355,-1.9281 -5.53408,-5.17591 -10.16542,-9.63065 -12.7264,-11.92178 -0.67704,-0.53968 -1.216703,0.0441 -0.72119,0.89781 0.49551,0.85856 7.69275,11.06814 20.5516,27.02764 0,0 4.27321,5.03856 6.88325,7.02061 -4.49889,0.76535 -10.61678,-0.27474 -13.58496,-4.2732 0,0 -7.05987,-8.9487 -15.331528,-21.31695 -1.349175,-2.02623 -3.645225,-1.43749 -2.428512,1.07934 1.2118,2.51682 9.351,16.32255 17.85325,30.17735 2.20284,3.23802 3.73354,5.93637 6.25036,7.95767 0.85365,0.67704 3.32633,2.34021 3.32633,2.34021 0,0 -3.91015,2.83082 -9.03702,-0.45136 -4.81287,-3.0565 -9.08607,-12.18673 -9.89558,-13.76159 -0.8095,-1.57485 -10.297878,-18.26046 -11.740265,-20.10024 -1.437488,-1.8447 -3.640325,-2.92404 -1.933,1.66316 1.712225,4.58719 11.333065,23.6081 12.098415,25.22712 0.76535,1.619 4.2732,8.67886 5.89221,11.51458 1.61901,2.83572 3.37539,7.24139 6.83417,8.8604 -2.41378,0.29437 -6.63302,0.62798 -10.3224,-2.15868 -1.93791,-1.46202 -3.32142,-3.89053 -5.10233,-7.42292 0,0 -7.864465,-16.73957 -13.393628,-30.20187 -0.917437,-2.19303 -3.257637,-3.04669 -3.046675,0.0736 0,0.63779 6.4515,18.2114 7.93805,22.03815 1.486538,3.82184 4.037713,10.05749 6.377913,11.7599 0,0 -2.408888,0.731 -5.244613,-0.26003 0,0 -2.9044,-0.2355 -5.529162,-5.62237 -4.817775,-10.20467 -7.85955,-20.89995 -10.695275,-27.84696 0,0 -1.41785,-3.33124 -3.26255,-0.6378 -0.495513,0.71139 -1.486538,5.03365 -1.059713,9.64046 0.05888,0.53478 0.304175,2.54137 0.304175,2.54137 0,0 0.01475,2.47757 2.688538,5.68615 0,0 2.1734,2.70326 2.978,3.4637 0.8046,0.75553 2.143962,1.8496 2.143962,1.8496 0,0 -1.0499,0.35815 -2.300962,0.35815 0.382675,1.18236 3.959225,10.76886 8.57585,17.54907 0,0 0.677037,1.15784 1.280487,1.65826 0.269838,0.23549 0.367963,0.39249 1.766188,0.46117 1.393337,0.0637 3.493137,0.0196 5.67145,-0.53967 0.745725,-0.14227 0.878187,-0.53476 2.119425,-0.8046 0.2453,-0.054 0.92725,-0.11775 1.162737,1.10878 0.08837,0.42192 0.2355,0.8046 0.991038,1.6877 0.760435,0.87819 1.108775,1.24614 1.373695,3.86108 -0.39738,-0.4023 -0.84875,-0.98122 -1.707308,-1.89866 l -0.20115,0 c 0,0 -0.166812,0.99104 -0.60345,1.19709 -0.431737,0.20115 -1.270675,0.3238 -3.090837,0.01 -1.820163,-0.31399 -2.845538,-0.52495 -5.014025,-0.78006 0.054,0.13246 0.191337,0.34342 1.182362,1.02537 0.426838,0.28945 0.632888,0.50533 1.00575,0.78007 0.490613,0.37286 1.118588,0.79478 1.427675,1.10387 0,0 0.583825,0.63779 0.662325,0.83894 0.07362,0.20605 0.299275,0.51513 -0.103,1.6877 0.04413,0.60344 0.176613,0.62306 0.122625,1.26086 l 0.08837,0.0441 c 0,0 0.260013,1.04008 -0.01962,3.03687 -0.613262,-0.99104 -0.917437,-1.51599 -1.432587,-2.64439 -0.220775,0.054 -0.824213,0.2453 -1.044988,0.27965 -0.225687,0.0344 -0.907625,0.18643 -1.677887,-0.71628 -0.77025,-0.90273 -2.467763,-3.33615 -3.439163,-5.20537 -0.421925,1.81035 -0.578925,2.51683 -0.60345,3.71882 -0.01963,1.2069 0.583825,2.24698 0.426825,3.08593 -0.157,0.83403 -0.77025,1.38352 -1.40805,1.2903 -0.1668,0.39249 -0.5691,1.63373 -3.370475,2.19302 0.299263,-0.60345 1.486538,-2.05565 1.280488,-2.48248 0,0 -0.6427,-0.26492 -0.892913,-0.37777 0,0 -0.461175,-0.34833 -0.691762,-0.8929 -0.225675,-0.54458 -0.132463,-1.25107 0.220775,-2.17832 0,0 0.647612,-1.27557 0.7997,-2.664 0.147175,-1.39332 0.28455,-2.83572 -0.264938,-4.80306 -0.054,-0.17662 -0.431725,-1.89375 -2.45795,-2.64929 -0.8046,-0.29927 -1.986962,-0.54457 -4.042612,-0.3238 -1.035188,0.0981 -2.870063,0.3238 -3.169338,-0.26492 -0.107875,-0.21096 -0.28945,-0.35815 -0.20605,-1.40315 -0.2404,0.0392 -0.912537,0.0981 -1.6926,1.46692 -0.230587,0.39249 -0.407212,0.41212 -0.44155,0.39249 0.210963,-1.53561 0.274738,-2.21265 1.01065,-3.10065 0.142275,-0.18644 1.094063,-0.84385 1.96735,-1.2069 0.220775,-0.33851 0.461163,-0.77516 0.912525,-0.91252 0.451363,-0.13738 1.295213,0.24038 2.4923,0.67703 1.197088,0.44155 3.193863,1.51598 4.55285,2.51192 -0.210962,-0.52004 -0.107875,-0.4857 -1.628825,-3.20858 -1.520887,-2.72779 -2.722875,-4.86685 -4.8374,-7.44254 -0.583825,-0.7261 -1.64845,-1.95262 -2.065462,-1.97716 -0.215875,0.40721 -0.7997,1.933 -0.932163,2.23718 0,0 -1.790725,-6.97155 -3.723725,-9.1057 -0.358137,3.4588 -1.481637,14.36993 -0.103,22.63178 0.60835,3.16934 2.565888,10.11636 9.041925,12.37807 0,0 -0.372862,1.08916 -4.15055,2.36964 0,0 -2.767037,0.86838 -5.529162,0.29437 l -0.08837,-0.0196 z M 10.506591,276.89721 c 0,0 -2.6492873,0.24531 -2.9878123,0.26984 -0.338525,0.0245 -1.913375,0.22568 -2.4972,0.58382 0.627975,0.87819 1.506175,2.38436 1.864312,3.01234 1.079338,-0.69666 3.4440753,-3.28218 3.6207003,-3.866 m 680.457379,67.71189 0,-19.39378 -3.82675,0 0,-3.01234 c 4.63625,-1.3737 7.90371,-5.32801 9.09589,-8.90945 l 3.13498,0 0,8.03618 8.72794,0 0,3.88561 -8.72794,0 0,17.82383 c 0,3.58145 1.19219,4.89627 4.45964,4.89627 1.50618,0 3.19878,-0.31399 4.14074,-0.62797 l 0.18644,2.07527 c -1.44239,1.87904 -5.26914,3.33124 -9.09589,3.33124 -5.96581,0 -8.09505,-2.83081 -8.09505,-8.10486 m -41.99024,4.83788 2.19793,-0.31398 c 1.4473,-0.19134 2.13415,-0.75554 2.13415,-4.70985 l 0,-14.43372 c 0,-2.88968 -0.44155,-3.69918 -4.01809,-4.45963 l 0,-2.31568 c 4.01809,-0.81931 8.66415,-1.70241 12.42712,-2.95836 l 0,4.45962 c 2.26172,-2.13413 5.65182,-4.14073 9.41479,-4.14073 7.15308,0 10.17033,4.14073 10.17033,10.54318 l 0,13.30532 c 0,4.07696 0.75062,4.58228 2.2568,4.8325 l 1.6975,0.2453 0,2.45305 c -1.56995,-0.0638 -6.09337,-0.19625 -8.47282,-0.19625 -2.51682,0 -6.08846,0.13247 -7.6584,0.19625 l 0,-2.50702 1.63373,-0.25511 c 1.25105,-0.25021 2.12924,-0.81441 2.12924,-4.76872 l 0,-12.36825 c 0,-4.14074 -1.06462,-6.15224 -5.14158,-6.15224 -2.44814,0 -4.2683,0.81932 -6.02959,1.76129 l 0,16.7592 c 0,3.89543 0.82423,4.51851 2.26172,4.76872 l 1.6975,0.30908 0,2.45305 c -1.56995,-0.0638 -5.7205,-0.19625 -8.47282,-0.19625 -2.83081,0 -6.65266,0.13247 -8.22751,0.19625 l 0,-2.50702 z m -31.37395,-12.17985 c 0,-10.2341 6.71644,-16.69542 15.43455,-16.69542 8.8555,0 12.43204,5.90202 12.43204,12.30447 0,0.81442 0,1.75638 -0.12756,2.57079 l -18.95223,0 0,1.25596 c 0,6.15224 3.57655,10.48432 9.59631,10.48432 3.39502,0 5.71561,-0.63289 7.72219,-1.63373 l 0.25021,2.13415 c -1.1284,2.2568 -5.52426,4.95515 -11.10738,4.95515 -9.54234,0 -15.24813,-5.956 -15.24813,-15.37569 m 18.57445,-5.14648 c 0.94198,0 1.44239,-0.5593 1.44239,-1.37862 0,-3.32632 -1.44239,-6.46622 -4.95024,-6.46622 -3.709,0 -5.65181,3.709 -6.02959,7.84484 l 9.53744,0 z m -55.35491,5.6474 c 0,-10.85718 8.85059,-16.62674 18.83448,-16.62674 0.61816,0 1.43748,0.0589 1.87903,0.19134 l 0,-3.89544 c 0,-2.88478 -0.38267,-3.70409 -3.95921,-4.39585 l 0,-2.38436 c 3.95921,-0.81932 8.60528,-1.94772 12.43202,-3.32143 l 0,36.02051 c 0,2.88478 0.44156,4.20452 4.01809,4.96005 l 0,2.32059 c -4.01809,0.50041 -8.65925,1.12349 -12.4909,2.19301 l 0,-2.88477 c -1.69751,1.57485 -4.64116,2.76704 -7.72218,2.76704 -8.22752,0 -12.99133,-6.22093 -12.99133,-14.94395 m 20.71351,9.28722 0,-21.58679 c -0.50533,-0.25021 -1.63863,-0.5642 -2.69835,-0.5642 -5.02383,0 -9.29213,3.32633 -9.29213,11.73537 0,6.65265 3.01725,11.29872 8.16373,11.29872 1.31974,0 2.50702,-0.25021 3.82675,-0.8831 m -37.58848,-36.08085 c 0,-2.45305 2.00168,-4.52341 4.70003,-4.52341 2.76213,0 4.77363,2.07036 4.77363,4.52341 0,2.50701 -2.0115,4.58229 -4.77363,4.58229 -2.69835,0 -4.70003,-2.07528 -4.70003,-4.58229 m -3.77377,38.47256 2.5806,-0.31398 c 1.44239,-0.19134 2.12434,-0.75554 2.12434,-4.70985 l 0,-14.43372 c 0,-2.88968 -0.43664,-3.69918 -4.00827,-4.45963 l 0,-2.31568 c 4.00827,-0.81931 8.66415,-1.70241 12.42222,-2.95836 l 0,24.16739 c 0,3.89543 0.75554,4.58228 2.2617,4.76872 l 2.06546,0.30908 0,2.45305 c -1.56013,-0.0638 -6.08355,-0.19625 -8.84567,-0.19625 -2.82591,0 -7.02553,0.13247 -8.60038,0.19625 l 0,-2.50702 z m -27.48686,1.8128 c 0.13246,-3.00743 -0.0589,-5.642 -0.2453,-8.65925 l 3.00743,0 c 0.44155,4.32718 2.38436,6.58888 7.28063,6.58888 3.33124,0 5.52427,-1.62881 5.52427,-4.26829 0,-6.5251 -15.56703,-3.45389 -15.56703,-15.31191 0,-5.57823 5.46539,-9.03701 12.74602,-9.03701 3.26254,0 7.40329,0.81441 9.29213,1.56503 -0.0686,2.83083 0,4.64608 0.2404,7.53577 l -3.00744,0 c -0.30907,-3.76788 -2.2617,-5.71069 -6.39753,-5.71069 -3.33124,0 -5.27895,1.44239 -5.27895,3.69919 0,6.15223 15.75345,3.95921 15.75345,15.0666 0,6.65265 -6.39754,9.98388 -12.92264,9.98388 -4.02299,0 -7.84974,-0.63288 -10.42544,-1.4522 m -18.06617,-38.46717 c 0,-2.32549 1.82016,-4.14565 4.13583,-4.14565 2.32058,0 4.15055,1.82016 4.15055,4.14565 0,2.32549 -1.82997,4.14565 -4.15055,4.14565 -2.31567,0 -4.13583,-1.82016 -4.13583,-4.14565 m -15.81872,32.00831 c 0,-6.2798 5.65181,-9.85634 14.24729,-9.85634 0.69175,0 1.88884,0 2.51681,0.0589 l 0,-2.94856 c 0,-4.44981 -1.88884,-6.46131 -6.47112,-6.46131 -2.63948,0 -5.26914,0.5642 -7.15799,1.56995 l -0.43664,-2.51683 c 1.87903,-2.00658 6.2062,-4.07205 10.67074,-4.07205 7.78106,0 11.9218,3.83165 11.9218,10.10654 0,4.89628 -0.31399,9.09589 -0.31399,13.92839 0,3.26745 1.25596,4.01317 4.45473,4.01317 l 0,2.26663 c -1.44239,1.1284 -3.76297,1.82015 -6.40244,1.82015 -3.94941,0 -5.58314,-1.88394 -5.89713,-4.52831 l -0.12756,0 c -1.3737,2.45303 -4.44981,4.45962 -8.53658,4.45962 -4.95515,0 -8.46792,-3.32632 -8.46792,-7.83992 m 16.63655,0.62307 c 0,-1.87412 0.054,-5.33782 0.12755,-6.96174 -0.51022,-0.0638 -1.26086,-0.0638 -1.70241,-0.0638 -4.45472,0 -7.08929,1.87904 -7.08929,5.1514 0,2.38437 1.62882,3.9494 4.01318,3.9494 2.00659,0 3.76787,-0.87818 4.65097,-2.07527 m -13.68503,-32.63143 c 0,-2.32549 1.82016,-4.14565 4.13583,-4.14565 2.32549,0 4.15055,1.82016 4.15055,4.14565 0,2.32549 -1.82506,4.14565 -4.15055,4.14565 -2.31567,0 -4.13583,-1.82016 -4.13583,-4.14565 m -27.98728,36.65437 2.19303,-0.31398 c 1.44238,-0.19134 2.13415,-0.75554 2.13415,-4.70985 l 0,-14.43372 c 0,-2.88968 -0.44155,-3.69918 -4.01809,-4.45963 l 0,-2.31568 c 4.01809,-0.81931 8.65923,-1.70241 12.42712,-2.95836 l 0,5.46537 c 1.63373,-2.76212 4.89628,-5.0827 8.28148,-5.0827 1.01065,0 2.32549,0.19134 3.01723,0.37287 l -1.19217,7.0942 c -0.87329,-0.5642 -2.63948,-0.94197 -3.95431,-0.94197 -1.81525,0 -4.33208,0.50042 -6.15223,1.94772 l 0,15.3119 c 0,3.89543 0.69175,4.58228 2.2617,4.76872 l 2.88479,0.30908 0,2.45305 c -1.57486,-0.0638 -6.90288,-0.19625 -9.665,-0.19625 -2.821,0 -6.65756,0.13247 -8.2177,0.19625 l 0,-2.50702 z m -36.08821,12.16858 1.76129,-0.2453 c 1.43748,-0.25513 2.12923,-0.82423 2.12923,-4.76873 l 0,-26.61062 c 0,-2.88969 -0.44155,-3.69919 -4.01808,-4.45964 l 0,-2.32057 c 3.95431,-0.81933 8.85058,-1.82017 12.42712,-2.95347 l 0,3.07612 c 1.75639,-1.56504 4.58229,-2.75723 7.66331,-2.75723 8.15883,0 13.11398,5.89713 13.11398,14.55638 0,10.86207 -8.85059,17.01431 -18.89825,17.01431 -0.5593,0 -1.43749,-0.0686 -1.87904,-0.19134 l 0,4.64606 c 0,3.89053 0.69176,4.57739 2.26171,4.76873 l 2.69835,0.30417 0,2.45304 c -1.56995,-0.0589 -6.71154,-0.19134 -9.47366,-0.19134 -2.83081,0 -6.21601,0.13248 -7.78596,0.19134 l 0,-2.51191 z m 24.34892,-25.35466 c 0,-6.65267 -3.01235,-10.92097 -8.15883,-10.92097 -1.31974,0 -2.51192,0.25513 -3.89053,0.8831 l 0,21.5917 c 0.5593,0.2453 1.63372,0.5642 2.76213,0.5642 4.83741,0 9.28723,-3.70901 9.28723,-12.11803 m -52.03055,14.99888 c 0.13247,-3.00743 -0.0589,-5.642 -0.2453,-8.65925 l 3.01234,0 c 0.43664,4.32718 2.37945,6.58888 7.27572,6.58888 3.33124,0 5.51935,-1.62881 5.51935,-4.26829 0,-6.5251 -15.56211,-3.45389 -15.56211,-15.31191 0,-5.57823 5.46539,-9.03701 12.74111,-9.03701 3.26255,0 7.4131,0.81441 9.29704,1.56503 -0.0637,2.83083 0,4.64608 0.2453,7.53577 l -3.01234,0 c -0.30417,-3.76788 -2.2568,-5.71069 -6.40243,-5.71069 -3.32634,0 -5.27405,1.44239 -5.27405,3.69919 0,6.15223 15.75345,3.95921 15.75345,15.0666 0,6.65265 -6.39754,9.98388 -12.92754,9.98388 -4.01809,0 -7.84484,-0.63288 -10.42054,-1.4522 m -33.1892,-13.99265 c 0,-10.2341 6.71644,-16.69542 15.42965,-16.69542 8.8604,0 12.43203,5.90202 12.43203,12.30447 0,0.81442 0,1.75638 -0.12755,2.57079 l -18.95223,0 0,1.25596 c 0,6.15224 3.57654,10.48432 9.60121,10.48432 3.39012,0 5.7156,-0.63289 7.71728,-1.63373 l 0.26002,2.13415 c -1.13821,2.2568 -5.52425,4.95515 -11.11228,4.95515 -9.54725,0 -15.24813,-5.956 -15.24813,-15.37569 m 18.57445,-5.14648 c 0.94198,0 1.44239,-0.5593 1.44239,-1.37862 0,-3.32632 -1.44239,-6.46622 -4.96005,-6.46622 -3.7041,0 -5.64691,3.709 -6.02959,7.84484 l 9.54725,0 z m -55.16259,5.6474 c 0,-10.85718 8.85059,-16.62674 18.81977,-16.62674 0.62306,0 1.44239,0.0589 1.88884,0.19134 l 0,-3.89544 c 0,-2.88478 -0.37777,-3.70409 -3.9543,-4.39585 l 0,-2.38436 c 3.9543,-0.81932 8.59055,-1.94772 12.42221,-3.32143 l 0,36.02051 c 0,2.88478 0.44645,4.20452 4.01809,4.96005 l 0,2.32059 c -4.01809,0.50041 -8.66416,1.12349 -12.486,2.19301 l 0,-2.88477 c -1.6975,1.57485 -4.65098,2.76704 -7.72219,2.76704 -8.2177,0 -12.98642,-6.22093 -12.98642,-14.94395 m 20.70861,9.28722 0,-21.58679 c -0.50533,-0.25021 -1.62883,-0.5642 -2.69835,-0.5642 -5.02384,0 -9.29704,3.32633 -9.29704,11.73537 0,6.65265 3.02215,11.29872 8.15882,11.29872 1.32465,0 2.51683,-0.25021 3.83657,-0.8831 m -59.61733,2.39171 2.19793,-0.31398 c 1.4473,-0.19134 2.13415,-0.75554 2.13415,-4.70985 l 0,-14.43372 c 0,-2.88968 -0.43664,-3.69918 -4.01809,-4.45963 l 0,-2.31568 c 4.01809,-0.81931 8.66415,-1.70241 12.42712,-2.95836 l 0,4.45962 c 2.2568,-2.13413 5.64692,-4.14073 9.41479,-4.14073 7.15308,0 10.09673,4.14073 10.09673,10.54318 l 0,13.30532 c 0,4.07696 0.75553,4.58228 2.25679,4.8325 l 1.69752,0.2453 0,2.45305 c -1.56995,-0.0638 -6.01978,-0.19625 -8.39923,-0.19625 -2.51682,0 -6.09336,0.13247 -7.6584,0.19625 l 0,-2.50702 1.62882,-0.25511 c 1.25596,-0.25021 2.13415,-0.81441 2.13415,-4.76872 l 0,-12.36825 c 0,-4.14074 -1.06462,-6.15224 -5.14158,-6.15224 -2.45305,0 -4.27321,0.81932 -6.02959,1.76129 l 0,16.7592 c 0,3.89543 0.81441,4.51851 2.2568,4.76872 l 1.69751,0.30908 0,2.45305 c -1.56505,-0.0638 -5.71068,-0.19625 -8.47282,-0.19625 -2.821,0 -6.65265,0.13247 -8.2226,0.19625 l 0,-2.50702 z m -16.37751,-0.88555 c -2.19793,2.13905 -5.58313,4.15055 -9.351,4.15055 -7.15799,0 -10.17033,-4.15055 -10.17033,-10.553 l 0,-12.67732 c 0,-2.94856 -0.43665,-3.6992 -4.01318,-4.45474 l 0,-2.32057 c 3.83166,-0.68685 8.5366,-1.43749 12.42712,-2.44814 l 0,20.95881 c 0,4.15055 1.06463,6.15224 5.14649,6.15224 2.37945,0 4.2683,-0.81441 5.9609,-1.75148 l 0,-16.13612 c 0,-2.94856 -0.37778,-3.6992 -3.95431,-4.45474 l 0,-2.32057 c 3.82674,-0.68685 8.5366,-1.37372 12.42712,-2.44814 l 0,23.2892 c 0,2.88479 0.44155,4.19961 4.01319,4.95025 l 0,2.38926 c -3.9494,0.37286 -8.71813,1.1284 -12.486,2.00169 l 0,-4.32718 z m -52.52655,3.265 c -2.19793,0 -6.71644,0.0637 -8.28639,0.12757 l 0,-2.63948 2.13415,-0.30909 c 1.63373,-0.25511 2.5757,-1.19217 2.5757,-5.08271 l 0,-23.03409 c 0,-3.89543 -0.94197,-4.8325 -2.5757,-5.0827 l -2.13415,-0.3189 0,-2.69345 c 1.56995,0.0637 5.77447,0.12263 8.22261,0.12263 3.57654,-0.0589 7.15308,-0.314 10.28807,-0.314 8.47772,0 13.55552,3.33615 13.55552,9.53744 0,4.45473 -4.70004,7.9675 -8.40412,8.60037 l 0,0.12263 c 4.89627,0.50041 9.97897,4.14073 9.97897,9.351 0,7.34441 -6.02468,11.93161 -15.50324,11.93161 -2.88477,0 -6.84398,-0.3189 -9.85142,-0.3189 m 14.62015,-28.99499 c 0,-4.13584 -2.19794,-6.46131 -6.33376,-6.46131 -0.82423,0 -2.20284,0 -3.20368,0.12262 l 0,13.11888 c 1.06461,0.0638 1.75638,0.0638 3.32141,0.0638 3.95923,0 6.21603,-3.20368 6.21603,-6.844 m 1.50616,17.75514 c 0,-4.39095 -2.44814,-7.15308 -7.15307,-7.15308 -1.31484,0 -2.82592,0.0637 -3.89053,0.12755 l 0,11.9218 c 0,1.95263 0.75063,2.8946 4.20451,2.8946 4.8325,0 6.83909,-3.26746 6.83909,-7.79087 m -64.70346,8.86053 2.19792,-0.31398 c 1.4473,-0.19134 2.13415,-0.75554 2.13415,-4.70985 l 0,-14.43372 c 0,-2.88968 -0.44155,-3.69918 -4.01808,-4.45963 l 0,-2.31568 c 4.01808,-0.81931 8.66415,-1.70241 12.42712,-2.95836 l 0,5.46537 c 1.63373,-2.76212 4.89628,-5.0827 8.28639,-5.0827 1.00084,0 2.32057,0.19134 3.01234,0.37287 l -1.19218,7.0942 c -0.8831,-0.5642 -2.63949,-0.94197 -3.95922,-0.94197 -1.81525,0 -4.32717,0.50042 -6.14733,1.94772 l 0,15.3119 c 0,3.89543 0.68685,4.58228 2.2568,4.76872 l 2.88969,0.30908 0,2.45305 c -1.56995,-0.0638 -6.90286,-0.19625 -9.665,-0.19625 -2.8259,0 -6.65265,0.13247 -8.2226,0.19625 l 0,-2.50702 z m -30.93878,-12.17985 c 0,-10.2341 6.71644,-16.69542 15.43947,-16.69542 8.85058,0 12.42712,5.90202 12.42712,12.30447 0,0.81442 0,1.75638 -0.12756,2.57079 l -18.95223,0 0,1.25596 c 0,6.15224 3.58145,10.48432 9.60123,10.48432 3.3901,0 5.71069,-0.63289 7.72217,-1.63373 l 0.24532,2.13415 c -1.1235,2.2568 -5.51935,4.95515 -11.10249,4.95515 -9.54234,0 -15.25303,-5.956 -15.25303,-15.37569 m 18.57445,-5.14648 c 0.94688,0 1.4473,-0.5593 1.4473,-1.37862 0,-3.32632 -1.4473,-6.46622 -4.95515,-6.46622 -3.709,0 -5.65181,3.709 -6.02958,7.84484 l 9.53743,0 z m -53.27717,19.70578 c -2.19793,0 -5.27405,0.0637 -8.16374,0.12757 l 0,-2.63948 2.13906,-0.30909 c 1.62883,-0.19133 2.5757,-1.19217 2.5757,-5.08271 l 0,-23.03409 c 0,-3.89543 -0.94687,-4.89627 -2.5757,-5.0827 l -2.13906,-0.3189 0,-2.69345 c 2.45305,0.0637 5.77938,0.12263 8.22751,0.12263 3.19878,-0.0589 6.20622,-0.25021 9.78765,-0.25021 13.18267,0 20.33574,7.40328 20.33574,18.51557 0,12.04445 -8.85059,20.89994 -21.71435,20.89994 -3.57654,0 -5.90202,-0.25511 -8.47281,-0.25511 m 20.83616,-19.5802 c 0,-8.72303 -3.57654,-15.8761 -12.486,-15.8761 -1.00575,0 -2.13905,0.0686 -3.1399,0.12262 l 0,28.80855 c 0,1.88885 0.68686,3.01725 3.6992,3.01725 7.34441,0 11.9267,-6.22092 11.9267,-16.07235"
       style="fill:#000000;fill-opacity:1;fill-rule:nonzero;stroke:none"
       id="path124" />
  </g>
</svg>
