<svg xmlns="http://www.w3.org/2000/svg" viewBox="0 0 196 96" aria-labelledby="logo-bmvg-title"><title id="logo-bmvg-title">Bundesministerium-der-Verteidigung-Logo</title><g fill="currentColor" fill-rule="evenodd"><path d="M66.962 23.733v-4.731h1.447v12.746h-1.447v-1.06h-.034c-.496.83-1.114 1.236-2.049 1.236-1.43 0-2.879-.565-2.879-4.484 0-2.224.07-4.784 2.951-4.784.845 0 1.463.371 1.959 1.077h.052zm10.382 4.026h-5.013c0 2.488.67 2.983 1.8 2.983.99 0 1.501-.794 1.554-1.693h1.589c-.018 1.976-1.236 2.875-3.106 2.875-1.89 0-3.391-.565-3.391-4.502 0-2.611.3-4.766 3.39-4.766 2.541 0 3.177 1.394 3.177 4.344v.759zm3.586-4.927v1.34h.034c.602-1.358 1.342-1.516 2.755-1.516v1.5c-.265-.035-.514-.09-.779-.09-1.605 0-2.01 1.22-2.01 2.422v5.26H79.48v-8.916h1.449zm15.189-3.83l-3.726 12.746H90.45l-3.69-12.746h1.766L91.44 30.21h.034L94.458 19h1.66zm6.866 8.757H97.97c0 2.488.67 2.983 1.8 2.983.991 0 1.503-.794 1.557-1.693h1.587c-.018 1.976-1.236 2.875-3.108 2.875-1.888 0-3.389-.565-3.389-4.502 0-2.611.3-4.766 3.39-4.766 2.543 0 3.18 1.394 3.18 4.344v.759zm3.584-4.927v1.34h.036c.598-1.358 1.34-1.516 2.753-1.516v1.5c-.264-.035-.51-.09-.776-.09-1.607 0-2.013 1.22-2.013 2.422v5.26h-1.448v-8.916h1.448zm3.503 0h1.467V21.12l1.446-.652v2.365h1.943v1.094h-1.943v5.456c0 .566 0 1.29 1.325 1.29.106 0 .335-.036.652-.072v1.112c-.476.036-.953.142-1.429.142-1.378 0-1.994-.566-1.994-1.59v-6.338h-1.467v-1.094zm12.67 4.927h-5.012c0 2.488.67 2.983 1.8 2.983.989 0 1.502-.794 1.555-1.693h1.589c-.018 1.976-1.236 2.875-3.108 2.875-1.889 0-3.391-.565-3.391-4.502 0-2.611.3-4.766 3.39-4.766 2.545 0 3.177 1.394 3.177 4.344v.759zm2.05 3.98v-8.901h1.442v8.9h-1.441zM126.325 19v1.55h-1.621V19h1.621zm7.135 4.733v-4.731h1.449v12.746h-1.449v-1.06h-.036c-.492.83-1.111 1.236-2.047 1.236-1.43 0-2.877-.565-2.877-4.484 0-2.224.07-4.784 2.948-4.784.846 0 1.466.371 1.96 1.077h.052zm4.072 8.006v-8.901h1.46v8.9h-1.46zM139.081 19v1.55h-1.64V19h1.64zm7.124 4.926v-1.094h1.449v9.817c0 1.994-1.325 2.472-3.285 2.472-1.485 0-2.825-.74-2.703-2.386h1.626c.018.833.564 1.292 1.36 1.292 1.007 0 1.553-.62 1.553-1.537v-1.854h-.054c-.371.704-1.182 1.112-1.958 1.112-2.42 0-2.896-2.083-2.896-4.732 0-4.095 2.067-4.36 2.79-4.36.934 0 1.677.405 2.084 1.27h.034zm8.793 4.822v-5.916h1.447v7.063c0 .617.036 1.236.088 1.853h-1.535v-1.076h-.052c-.478.81-1.325 1.252-2.26 1.252-1.555 0-2.403-.776-2.403-2.295v-6.797h1.45v6.18c0 1.076.494 1.8 1.517 1.8.779 0 1.748-.583 1.748-2.064zm10.346 3h-1.447v-6.179c0-.953-.337-1.73-1.571-1.73-1.59 0-1.82 1.411-1.82 2.63v5.279h-1.445v-7.062c0-.62-.036-1.236-.09-1.854h1.535v1.146h.072c.566-1.005 1.236-1.322 2.382-1.322 1.908 0 2.384 1.148 2.384 2.913v6.179zm7.117-7.822v-1.094h1.447v9.817c0 1.994-1.325 2.472-3.283 2.472-1.483 0-2.827-.74-2.703-2.386h1.625c.018.833.564 1.292 1.359 1.292 1.007 0 1.555-.62 1.555-1.537v-1.854h-.054c-.37.704-1.182 1.112-1.96 1.112-2.418 0-2.894-2.083-2.894-4.732 0-4.095 2.065-4.36 2.789-4.36.935 0 1.676.405 2.083 1.27h.036zm-39.002 3.002c0-1.182-.07-3.088-1.675-3.088-1.555 0-1.768 1.234-1.768 3.618 0 1.342 0 3.284 1.82 3.284 1.623 0 1.623-2.012 1.623-3.814zm-15.73-.265h3.48c0-2.596-.724-2.912-1.786-2.912-.917 0-1.675.442-1.693 2.912zm-45.398 0h3.476c0-2.596-.722-2.912-1.782-2.912-.917 0-1.677.442-1.694 2.912zm-5.369.265c0-1.182-.07-3.088-1.68-3.088-1.55 0-1.761 1.234-1.761 3.618 0 1.342 0 3.284 1.816 3.284 1.625 0 1.625-2.012 1.625-3.814zm31.007-.265h3.48c0-2.596-.725-2.912-1.786-2.912-.917 0-1.676.442-1.694 2.912zm48.27.584c0-1.325.09-3.391-1.728-3.391-1.643 0-1.695 1.978-1.695 3.16 0 2.861.654 3.53 1.73 3.53 1.747 0 1.693-2.063 1.693-3.3zm26.258 0c0-1.325.086-3.391-1.73-3.391-1.645 0-1.697 1.978-1.697 3.16 0 2.861.654 3.53 1.731 3.53 1.748 0 1.696-2.063 1.696-3.3zM67.095 12.75H63V.004h4.15c1.764 0 2.365.6 2.841 1.306.441.69.513 1.449.513 1.695 0 1.59-.55 2.647-2.189 3.02v.087c1.817.212 2.611 1.306 2.611 3.054 0 3.268-2.384 3.584-3.83 3.584zm10.656-3V3.836H79.2v7.06c0 .62.036 1.237.088 1.854h-1.537v-1.076h-.054c-.474.812-1.324 1.252-2.26 1.252-1.552 0-2.397-.776-2.397-2.295V3.836h1.445v6.178c0 1.076.495 1.8 1.519 1.8.776 0 1.747-.582 1.747-2.064zm10.348 3H86.65V6.57c0-.953-.335-1.73-1.57-1.73-1.59 0-1.819 1.413-1.819 2.63v5.279h-1.448V5.688c0-.618-.036-1.236-.089-1.852h1.537v1.146h.07c.564-1.005 1.236-1.324 2.384-1.324 1.907 0 2.384 1.147 2.384 2.913v6.179zm7.115-8.015V.004h1.447V12.75h-1.447v-1.06h-.034c-.495.83-1.112 1.236-2.05 1.236-1.43 0-2.878-.564-2.878-4.485 0-2.221.07-4.783 2.95-4.783.847 0 1.465.373 1.96 1.077h.052zM105.42 8.76h-5.015c0 2.489.67 2.984 1.802 2.984.987 0 1.5-.794 1.551-1.694h1.59c-.017 1.977-1.235 2.876-3.107 2.876-1.888 0-3.389-.564-3.389-4.5 0-2.613.301-4.768 3.39-4.768 2.54 0 3.178 1.396 3.178 4.344v.758zm7.98 1.449c0 1.959-1.342 2.717-3.108 2.717-1.923 0-3.125-.847-3.07-2.894h1.64c0 .512.019 1.712 1.484 1.712.865 0 1.537-.441 1.537-1.36 0-1.59-4.45-1.624-4.45-4.29 0-.934.563-2.436 3.073-2.436 1.588 0 2.946.758 2.824 2.526h-1.608c.02-.937-.475-1.43-1.394-1.43-.775 0-1.377.423-1.377 1.2 0 1.568 4.449 1.534 4.449 4.255zm8.083 2.54h-1.449V6.572c0-.9-.247-1.73-1.413-1.73-.44 0-1.041.265-1.252.599-.266.443-.337.97-.337 1.308v6.002h-1.447V5.688c0-.618-.036-1.236-.088-1.852h1.535v1.112h.036c.424-.953 1.184-1.29 2.224-1.29.812 0 1.75.337 2.084 1.147.494-.953 1.309-1.147 2.12-1.147.934 0 2.435.212 2.435 2.313v6.779h-1.448V6.57c0-.9-.247-1.73-1.411-1.73-.548 0-.706.018-1.096.336-.423.353-.493 1.234-.493 1.57v6.003zm7.001.008v-8.92h1.46v8.92h-1.46zM130.034 0v1.55h-1.64V0h1.64zm8.816 12.75h-1.447V6.57c0-.953-.335-1.73-1.573-1.73-1.587 0-1.816 1.413-1.816 2.63v5.279h-1.45V5.688c0-.618-.034-1.236-.085-1.852h1.535v1.146h.07c.564-1.005 1.235-1.324 2.384-1.324 1.907 0 2.382 1.147 2.382 2.913v6.179zm2.553.007v-8.92h1.46v8.92h-1.46zM142.953 0v1.55h-1.64V0h1.64zm8.131 10.209c0 1.959-1.342 2.717-3.106 2.717-1.926 0-3.124-.847-3.072-2.894h1.642c0 .512.016 1.712 1.482 1.712.865 0 1.536-.441 1.536-1.36 0-1.59-4.447-1.624-4.447-4.29 0-.934.564-2.436 3.07-2.436 1.587 0 2.948.758 2.825 2.526h-1.607c.018-.937-.476-1.43-1.395-1.43-.776 0-1.376.423-1.376 1.2 0 1.568 4.448 1.534 4.448 4.255zm.966-6.373h1.467V2.123l1.447-.655v2.368h1.944V4.93h-1.944v5.454c0 .566 0 1.29 1.326 1.29.104 0 .335-.036.652-.072v1.111c-.477.037-.953.143-1.43.143-1.379 0-1.995-.564-1.995-1.588V4.93h-1.467V3.836zm12.638 4.924h-5.014c0 2.489.67 2.984 1.801 2.984.99 0 1.5-.794 1.554-1.694h1.589c-.018 1.977-1.236 2.876-3.108 2.876-1.89 0-3.39-.564-3.39-4.5 0-2.613.3-4.768 3.39-4.768 2.542 0 3.178 1.396 3.178 4.344v.758zm3.584-4.924v1.34h.036c.6-1.36 1.342-1.518 2.753-1.518V5.16c-.263-.036-.51-.09-.775-.09-1.607 0-2.014 1.22-2.014 2.418v5.262h-1.447V3.836h1.447zm4.338 8.92V3.839h1.442v8.919h-1.442zM174.142 0v1.55h-1.622V0h1.622zm7.182 9.75V3.836h1.45v7.06c0 .62.035 1.237.087 1.854h-1.537v-1.076h-.052c-.476.812-1.323 1.252-2.258 1.252-1.555 0-2.402-.776-2.402-2.295V3.836h1.447v6.178c0 1.076.496 1.8 1.519 1.8.777 0 1.746-.582 1.746-2.064zm9.94 3h-1.446V6.57c0-.9-.247-1.73-1.411-1.73-.442 0-1.042.265-1.254.599-.267.443-.337.97-.337 1.308v6.002h-1.447V5.688c0-.618-.036-1.236-.086-1.852h1.533v1.112h.036c.425-.953 1.184-1.29 2.223-1.29.813 0 1.75.337 2.085 1.147.494-.953 1.306-1.147 2.119-1.147.935 0 2.438.212 2.438 2.313v6.779h-1.45V6.57c0-.9-.248-1.73-1.412-1.73-.547 0-.706.018-1.095.336-.423.353-.496 1.234-.496 1.57v6.003zM64.624 6.784v4.555h2.295c1.73 0 2.348-1.236 2.348-2.173 0-2.03-1.253-2.382-2.912-2.382h-1.732zm35.781.88h3.48c0-2.594-.727-2.91-1.784-2.91-.92 0-1.676.44-1.696 2.91zm-35.782-6.25V5.37h2.366c1.272-.016 1.89-.794 1.89-2.03 0-1.06-.6-1.925-1.96-1.925h-2.296zM95.214 7.93c0-1.182-.07-3.089-1.679-3.089-1.551 0-1.762 1.236-1.762 3.62 0 1.34 0 3.283 1.816 3.283 1.625 0 1.625-2.013 1.625-3.814zm64.46-.265h3.479c0-2.595-.724-2.912-1.782-2.912-.919 0-1.68.442-1.697 2.912z" fill="currentColor"/><path fill="currentColor" d="M46 96h5V64h-5z"/><path fill="currentColor" d="M46 64h5V32h-5z"/><path fill="currentColor" d="M46 32h5V0h-5zM28.913 6.993c0-1.797-1.308-3.218-1.767-3.618l-.332.075c.49.597 1.352 1.597 1.352 2.92 0 2.603-2.753 4.868-5.894 4.911.023.269.022.505.022.706 0 .373-.024.737-.069 1.09 3.566-.064 6.688-2.962 6.688-6.084zM23.996 28.56c-1.522 0-1.852-.158-2.254-.158-.256 0-.502.025-.502.39 0 .253.286.622.544.817.355-.355.848-.434 1.641-.434.371 0 .876.074 1.1.104-.031.218-.076.501-.076.9 0 .21.009.453.009.713 0 .899-.132 1.376-.447 1.735.068.041.25.08.358.08.58 0 .732-.298.732-1.812 0-.457.038-.879.038-.989.812.62 1.643 1.728 1.643 2.532.267-.135.578-.537.578-.84 0-.546-.913-1.358-1.879-2.342.133-.03.492-.135.787-.135.763 0 1.377.128 1.736.55.138-.156.257-.617.257-.88 0-.456-.261-.44-.45-.44-.811 0-1.811.125-2.528.244-.26-.346-1.92-2.591-2.35-3.788a1.044 1.044 0 0 0-.423-.081c-.398 0-.503.28-.607.661.915 1.11 1.794 2.317 2.093 3.173zm-9.084-3.173c-.105-.382-.208-.661-.608-.661-.203 0-.3.036-.421.081-.433 1.197-2.092 3.442-2.353 3.788-.716-.12-1.716-.244-2.526-.244-.19 0-.45-.016-.45.44 0 .263.116.724.26.88.354-.422.972-.55 1.73-.55.297 0 .654.104.79.135-.968.984-1.882 1.796-1.882 2.342 0 .303.316.705.58.84 0-.804.833-1.912 1.645-2.532 0 .11.038.532.038.99 0 1.513.15 1.81.73 1.81a.938.938 0 0 0 .359-.08c-.316-.358-.447-.835-.447-1.734 0-.26.009-.503.009-.714 0-.398-.045-.68-.076-.899.223-.03.728-.104 1.1-.104.792 0 1.284.079 1.642.434.258-.195.543-.564.543-.816 0-.366-.247-.391-.505-.391-.402 0-.73.158-2.254.158.301-.856 1.179-2.063 2.096-3.173zM8.649 6.37c0-1.322.863-2.322 1.35-2.919l-.33-.075c-.462.4-1.768 1.821-1.768 3.618 0 3.144 3.167 6.063 6.766 6.086a9.426 9.426 0 0 1-.062-1.092c0-.243.011-.479.031-.704-3.18 0-5.987-2.283-5.987-4.914zm9.668-2.421c.166-.377.386-.826.386-1.317 0-1.364-1.132-2.015-2.645-2.015-.777 0-1.17.252-1.17.505 0 .25.256.805.357.976.277-.122.784-.272 1.076-.272 1.038 0 1.816 1.164 1.996 2.123zm.742-1.746c.889.175 1.49-.955.649-1.159.117.375-.449.638-.449.638s-.216-.5.063-.784c-.513-.252-.643.054-.654.371.2.27.336.586.391.934zm2.867 7.748c.14.009.276.014.416.014 2.492 0 4.962-1.61 4.962-3.674 0-1.099-.493-1.87-1.108-2.72-.356.057-.683.09-.94.09-1.13 0-1.74-.604-1.786-1.197 0-.535.434-.939 1.11-.939 1.047 0 2.957.979 4.883.979-.191.144-.506.293-.887.438a6.975 6.975 0 0 1 2.17 3.83l2.95 4.72c.495.79 1.542 2.338 3.118 3.547-1.906 0-3.17.045-4.783-2.507l-1.512-2.418c-.112.312-.25.618-.413.918l3.006 4.81c.5.797 1.537 2.334 3.122 3.548-1.908 0-3.173.047-4.785-2.506L28.86 12.74a9.68 9.68 0 0 1-.614.6l3.652 5.845c.503.798 1.535 2.33 3.12 3.547-1.907 0-3.172.045-4.785-2.506l-3.558-5.7c-.236.15-.476.293-.723.43l4.344 6.951c.501.8 1.532 2.328 3.12 3.546-1.905 0-3.172.045-4.785-2.506l-4.472-7.159c-.265.101-.535.197-.807.285l5.056 8.093c.492.784 1.548 2.34 3.119 3.545-1.908 0-3.173.045-4.786-2.508l-5.387-8.626-.162.033c-.148.465-.25.9-.25 1.335 0 2.71 1.778 5.1 3.913 6.95-.137.059-.375.08-.595.08-.441 0-.724-.025-.926-.059.497 1.124 1.559 2.575 2.096 3.328a15.549 15.549 0 0 1 2.38-.225c.695 0 .773.407.773.77 0 .633-.296 1.14-.638 1.419-.132-.326-.391-.757-1.678-.757l-.13.007c.379.418 1.556 1.372 1.556 2.14 0 .504-.557 1.268-1.29 1.268.043-.166.036-.316.036-.43 0-.62-.55-1.345-1.013-1.853.01.151.007.135.007.311 0 1.467-.133 2.143-1.065 2.143-.457 0-.773-.25-.88-.325.603-.56.635-.998.635-1.821l-.007-.714a3.881 3.881 0 0 1 .032-.616c-.333-.047-.468-.045-.724-.045 0 0-1.326-.104-1.641.584-.362-.328-.883-.793-.883-1.308 0-.34.16-.725.841-.725.26 0 1.072.16 1.75.16-.18-.406-.995-1.596-1.697-2.459-.109.335-.274.701-.644.995-.05-.557-.374-2.31-1.243-3.333-.1.69-.238 1.401-.238 2.9 0 3.65.878 6.343 2.74 6.856-.242.424-.754.802-1.286.802-.68 0-1.052-.771-1.43-1.497-.199.537-.74 1.85-1.287 1.85-.544 0-1.09-1.313-1.286-1.85-.379.726-.75 1.497-1.431 1.497-.531 0-1.043-.378-1.285-.802 1.86-.513 2.737-3.207 2.737-6.856 0-1.499-.135-2.21-.236-2.9-.866 1.023-1.194 2.776-1.245 3.333-.367-.294-.535-.66-.641-.995-.703.863-1.516 2.053-1.7 2.46.682 0 1.493-.16 1.75-.16.683 0 .843.383.843.724 0 .515-.522.98-.88 1.308-.32-.688-1.644-.584-1.644-.584-.256 0-.389-.002-.724.045.029.18.034.429.03.616l-.005.714c0 .823.032 1.261.638 1.821-.108.074-.425.325-.883.325-.93 0-1.063-.676-1.063-2.143 0-.176-.007-.16.005-.311-.465.508-1.012 1.234-1.012 1.854 0 .113-.007.263.036.429-.732 0-1.29-.764-1.29-1.269 0-.767 1.178-1.72 1.553-2.139l-.13-.007c-1.285 0-1.546.43-1.676.757-.344-.28-.64-.786-.64-1.418 0-.364.08-.771.776-.771.666 0 1.682.099 2.382.225.536-.753 1.596-2.204 2.091-3.328-.2.034-.482.06-.924.06-.22 0-.458-.022-.594-.082 2.135-1.848 3.911-4.24 3.911-6.95 0-.433-.1-.87-.247-1.334l-.162-.033-5.389 8.626c-1.613 2.553-2.88 2.508-4.784 2.508 1.57-1.206 2.625-2.76 3.117-3.545l5.058-8.093a17.148 17.148 0 0 1-.809-.285l-4.472 7.159c-1.613 2.551-2.88 2.506-4.784 2.506 1.586-1.218 2.616-2.746 3.12-3.546l4.343-6.951a12.92 12.92 0 0 1-.722-.43l-3.56 5.7c-1.613 2.551-2.876 2.506-4.784 2.506 1.587-1.218 2.618-2.75 3.118-3.547l3.653-5.846a9.64 9.64 0 0 1-.613-.6l-2.587 4.143C3.753 19.436 2.488 19.389.58 19.389c1.586-1.214 2.622-2.751 3.123-3.548l3.003-4.81c-.16-.3-.299-.606-.409-.918l-1.511 2.418C3.17 15.083 1.906 15.038 0 15.038c1.577-1.21 2.623-2.757 3.12-3.546l2.948-4.72A6.994 6.994 0 0 1 8.236 2.94c-.377-.145-.694-.294-.883-.438 1.924 0 3.833-.979 4.881-.979.678 0 1.11.404 1.11.939-.043.593-.656 1.196-1.785 1.196-.258 0-.582-.032-.943-.09-.612.85-1.104 1.622-1.104 2.721 0 2.065 2.466 3.674 4.96 3.674.142 0 .276-.005.416-.014.494-1.673 1.544-2.77 2.386-3.842-1.01-.367-2.132-1.322-2.132-1.757.13-.074 2.058.532 2.256.586.042.01.083.014.13 0 .232-.07.43-.413.43-.447-.205-.034-1.416-.19-2.243-.494-.629-.228-.946-.646-.946-.803.202-.033.966.37 2.09.37.417 0 .496-.019.909-.068-.289-.691-.835-1.275-1.447-1.275-.247 0-.784.155-1.236.382-.314-.488-.591-1.132-.591-1.481 0-.413.41-.898 1.564-.898.324 0 .623.027.904.08.225.041.415.092.618.17a.366.366 0 0 1-.025-.145c0-.157.146-.328.688-.328.95 0 1.923.312 3.115.312.31 0 .52-.01.7-.087-.08.24-.413.59-.721.872.19.262.683.887.683 1.898 0 1.623-1.07 2.964-1.07 4.607 0 .975.75 1.836.976 2.348z"/></g></svg>