<svg xmlns="http://www.w3.org/2000/svg" viewBox="0 0 196 96" aria-labelledby="logo-bmvg-title"><title id="logo-bmvg-title">Federal ministry of defence logo</title><g fill="currentColor" fill-rule="evenodd"><path fill="currentColor" d="M46 96h5V64h-5z"/><path fill="currentColor" d="M46 64h5V32h-5z"/><path fill="currentColor" d="M46 32h5V0h-5zM28.913 6.993c0-1.797-1.308-3.218-1.767-3.618l-.332.075c.49.597 1.352 1.597 1.352 2.92 0 2.603-2.753 4.868-5.894 4.911.023.269.022.505.022.706 0 .373-.024.737-.069 1.09 3.566-.064 6.688-2.962 6.688-6.084zM23.996 28.56c-1.522 0-1.852-.158-2.254-.158-.256 0-.502.025-.502.39 0 .253.286.622.544.817.355-.355.848-.434 1.641-.434.371 0 .876.074 1.1.104-.031.218-.076.501-.076.9 0 .21.009.453.009.713 0 .899-.132 1.376-.447 1.735.068.041.25.08.358.08.58 0 .732-.298.732-1.812 0-.457.038-.879.038-.989.812.62 1.643 1.728 1.643 2.532.267-.135.578-.537.578-.84 0-.546-.913-1.358-1.879-2.342.133-.03.492-.135.787-.135.763 0 1.377.128 1.736.55.138-.156.257-.617.257-.88 0-.456-.261-.44-.45-.44-.811 0-1.811.125-2.528.244-.26-.346-1.92-2.591-2.35-3.788a1.044 1.044 0 0 0-.423-.081c-.398 0-.503.28-.607.661.915 1.11 1.794 2.317 2.093 3.173zm-9.084-3.173c-.105-.382-.208-.661-.608-.661-.203 0-.3.036-.421.081-.433 1.197-2.092 3.442-2.353 3.788-.716-.12-1.716-.244-2.526-.244-.19 0-.45-.016-.45.44 0 .263.116.724.26.88.354-.422.972-.55 1.73-.55.297 0 .654.104.79.135-.968.984-1.882 1.796-1.882 2.342 0 .303.316.705.58.84 0-.804.833-1.912 1.645-2.532 0 .11.038.532.038.99 0 1.513.15 1.81.73 1.81a.938.938 0 0 0 .359-.08c-.316-.358-.447-.835-.447-1.734 0-.26.009-.503.009-.714 0-.398-.045-.68-.076-.899.223-.03.728-.104 1.1-.104.792 0 1.284.079 1.642.434.258-.195.543-.564.543-.816 0-.366-.247-.391-.505-.391-.402 0-.73.158-2.254.158.301-.856 1.179-2.063 2.096-3.173zM8.649 6.37c0-1.322.863-2.322 1.35-2.919l-.33-.075c-.462.4-1.768 1.821-1.768 3.618 0 3.144 3.167 6.063 6.766 6.086a9.426 9.426 0 0 1-.062-1.092c0-.243.011-.479.031-.704-3.18 0-5.987-2.283-5.987-4.914zm9.668-2.421c.166-.377.386-.826.386-1.317 0-1.364-1.132-2.015-2.645-2.015-.777 0-1.17.252-1.17.505 0 .25.256.805.357.976.277-.122.784-.272 1.076-.272 1.038 0 1.816 1.164 1.996 2.123zm.742-1.746c.889.175 1.49-.955.649-1.159.117.375-.449.638-.449.638s-.216-.5.063-.784c-.513-.252-.643.054-.654.371.2.27.336.586.391.934zm2.867 7.748c.14.009.276.014.416.014 2.492 0 4.962-1.61 4.962-3.674 0-1.099-.493-1.87-1.108-2.72-.356.057-.683.09-.94.09-1.13 0-1.74-.604-1.786-1.197 0-.535.434-.939 1.11-.939 1.047 0 2.957.979 4.883.979-.191.144-.506.293-.887.438a6.975 6.975 0 0 1 2.17 3.83l2.95 4.72c.495.79 1.542 2.338 3.118 3.547-1.906 0-3.17.045-4.783-2.507l-1.512-2.418c-.112.312-.25.618-.413.918l3.006 4.81c.5.797 1.537 2.334 3.122 3.548-1.908 0-3.173.047-4.785-2.506L28.86 12.74a9.68 9.68 0 0 1-.614.6l3.652 5.845c.503.798 1.535 2.33 3.12 3.547-1.907 0-3.172.045-4.785-2.506l-3.558-5.7c-.236.15-.476.293-.723.43l4.344 6.951c.501.8 1.532 2.328 3.12 3.546-1.905 0-3.172.045-4.785-2.506l-4.472-7.159c-.265.101-.535.197-.807.285l5.056 8.093c.492.784 1.548 2.34 3.119 3.545-1.908 0-3.173.045-4.786-2.508l-5.387-8.626-.162.033c-.148.465-.25.9-.25 1.335 0 2.71 1.778 5.1 3.913 6.95-.137.059-.375.08-.595.08-.441 0-.724-.025-.926-.059.497 1.124 1.559 2.575 2.096 3.328a15.549 15.549 0 0 1 2.38-.225c.695 0 .773.407.773.77 0 .633-.296 1.14-.638 1.419-.132-.326-.391-.757-1.678-.757l-.13.007c.379.418 1.556 1.372 1.556 2.14 0 .504-.557 1.268-1.29 1.268.043-.166.036-.316.036-.43 0-.62-.55-1.345-1.013-1.853.01.151.007.135.007.311 0 1.467-.133 2.143-1.065 2.143-.457 0-.773-.25-.88-.325.603-.56.635-.998.635-1.821l-.007-.714a3.881 3.881 0 0 1 .032-.616c-.333-.047-.468-.045-.724-.045 0 0-1.326-.104-1.641.584-.362-.328-.883-.793-.883-1.308 0-.34.16-.725.841-.725.26 0 1.072.16 1.75.16-.18-.406-.995-1.596-1.697-2.459-.109.335-.274.701-.644.995-.05-.557-.374-2.31-1.243-3.333-.1.69-.238 1.401-.238 2.9 0 3.65.878 6.343 2.74 6.856-.242.424-.754.802-1.286.802-.68 0-1.052-.771-1.43-1.497-.199.537-.74 1.85-1.287 1.85-.544 0-1.09-1.313-1.286-1.85-.379.726-.75 1.497-1.431 1.497-.531 0-1.043-.378-1.285-.802 1.86-.513 2.737-3.207 2.737-6.856 0-1.499-.135-2.21-.236-2.9-.866 1.023-1.194 2.776-1.245 3.333-.367-.294-.535-.66-.641-.995-.703.863-1.516 2.053-1.7 2.46.682 0 1.493-.16 1.75-.16.683 0 .843.383.843.724 0 .515-.522.98-.88 1.308-.32-.688-1.644-.584-1.644-.584-.256 0-.389-.002-.724.045.029.18.034.429.03.616l-.005.714c0 .823.032 1.261.638 1.821-.108.074-.425.325-.883.325-.93 0-1.063-.676-1.063-2.143 0-.176-.007-.16.005-.311-.465.508-1.012 1.234-1.012 1.854 0 .113-.007.263.036.429-.732 0-1.29-.764-1.29-1.269 0-.767 1.178-1.72 1.553-2.139l-.13-.007c-1.285 0-1.546.43-1.676.757-.344-.28-.64-.786-.64-1.418 0-.364.08-.771.776-.771.666 0 1.682.099 2.382.225.536-.753 1.596-2.204 2.091-3.328-.2.034-.482.06-.924.06-.22 0-.458-.022-.594-.082 2.135-1.848 3.911-4.24 3.911-6.95 0-.433-.1-.87-.247-1.334l-.162-.033-5.389 8.626c-1.613 2.553-2.88 2.508-4.784 2.508 1.57-1.206 2.625-2.76 3.117-3.545l5.058-8.093a17.148 17.148 0 0 1-.809-.285l-4.472 7.159c-1.613 2.551-2.88 2.506-4.784 2.506 1.586-1.218 2.616-2.746 3.12-3.546l4.343-6.951a12.92 12.92 0 0 1-.722-.43l-3.56 5.7c-1.613 2.551-2.876 2.506-4.784 2.506 1.587-1.218 2.618-2.75 3.118-3.547l3.653-5.846a9.64 9.64 0 0 1-.613-.6l-2.587 4.143C3.753 19.436 2.488 19.389.58 19.389c1.586-1.214 2.622-2.751 3.123-3.548l3.003-4.81c-.16-.3-.299-.606-.409-.918l-1.511 2.418C3.17 15.083 1.906 15.038 0 15.038c1.577-1.21 2.623-2.757 3.12-3.546l2.948-4.72A6.994 6.994 0 0 1 8.236 2.94c-.377-.145-.694-.294-.883-.438 1.924 0 3.833-.979 4.881-.979.678 0 1.11.404 1.11.939-.043.593-.656 1.196-1.785 1.196-.258 0-.582-.032-.943-.09-.612.85-1.104 1.622-1.104 2.721 0 2.065 2.466 3.674 4.96 3.674.142 0 .276-.005.416-.014.494-1.673 1.544-2.77 2.386-3.842-1.01-.367-2.132-1.322-2.132-1.757.13-.074 2.058.532 2.256.586.042.01.083.014.13 0 .232-.07.43-.413.43-.447-.205-.034-1.416-.19-2.243-.494-.629-.228-.946-.646-.946-.803.202-.033.966.37 2.09.37.417 0 .496-.019.909-.068-.289-.691-.835-1.275-1.447-1.275-.247 0-.784.155-1.236.382-.314-.488-.591-1.132-.591-1.481 0-.413.41-.898 1.564-.898.324 0 .623.027.904.08.225.041.415.092.618.17a.366.366 0 0 1-.025-.145c0-.157.146-.328.688-.328.95 0 1.923.312 3.115.312.31 0 .52-.01.7-.087-.08.24-.413.59-.721.872.19.262.683.887.683 1.898 0 1.623-1.07 2.964-1.07 4.607 0 .975.75 1.836.976 2.348zM66.707 28.22v-1.347c0-1.003-.059-1.697-.175-2.082-.221-.71-.694-1.067-1.417-1.067-.758 0-1.26.38-1.505 1.138-.128.396-.193 1.078-.193 2.047v1.259c0 .851.071 1.458.21 1.82.245.619.725.927 1.436.927.687 0 1.155-.298 1.4-.892.162-.397.244-.997.244-1.803m1.435-.944c0 1.61-.18 2.747-.543 3.411-.454.818-1.307 1.225-2.555 1.225-1.271 0-2.123-.407-2.553-1.225-.327-.618-.491-1.714-.491-3.289 0-1.516.175-2.612.525-3.288.468-.922 1.342-1.383 2.624-1.383 1.272 0 2.119.426 2.538 1.277.304.595.455 1.686.455 3.272zm5.652-7.157a6.05 6.05 0 0 0-.544-.017c-.43 0-.721.158-.875.473-.093.221-.14.577-.14 1.067v1.277h1.506v1.014h-1.505v7.804h-1.381v-7.804h-1.296V22.92h1.296v-.962c0-.956.116-1.64.35-2.047.326-.607.955-.91 1.889-.91.244 0 .478.012.7.036v1.083zm13.542 5.093c0 1.33-.046 2.315-.14 2.956-.176 1.214-.537 2.082-1.085 2.607-.665.641-1.68.963-3.044.963H79.97v-12.65h3.097c1.248 0 2.197.245 2.85.734.585.432.976 1.068 1.174 1.908.163.7.245 1.86.245 3.482zm8.136 2.309h-4.619v.596c0 .898.08 1.545.245 1.941.232.572.687.857 1.364.857 1.016 0 1.545-.648 1.593-1.942h1.364c-.082 1.959-1.066 2.939-2.957 2.939-1.225 0-2.064-.414-2.52-1.242-.337-.618-.507-1.615-.507-2.991 0-1.563.147-2.684.438-3.36.455-1.061 1.353-1.592 2.694-1.592 1.26 0 2.1.466 2.52 1.4.257.583.385 1.58.385 2.991v.403zm5.598-7.402a6.01 6.01 0 0 0-.542-.017c-.432 0-.723.158-.874.473-.095.221-.141.577-.141 1.067v1.277h1.506v1.014h-1.506v7.804H98.13v-7.804h-1.294V22.92h1.294v-.962c0-.956.117-1.64.35-2.047.327-.607.956-.91 1.89-.91.244 0 .478.012.7.036v1.083zm7.21 7.402h-4.62v.596c0 .898.083 1.545.245 1.941.233.572.688.857 1.365.857 1.015 0 1.546-.648 1.591-1.942h1.366c-.082 1.959-1.067 2.939-2.957 2.939-1.225 0-2.064-.414-2.52-1.242-.339-.618-.506-1.615-.506-2.991 0-1.563.146-2.684.437-3.36.455-1.061 1.353-1.592 2.694-1.592 1.26 0 2.1.466 2.519 1.4.257.583.386 1.58.386 2.991v.403zm8.118 4.217h-1.382v-5.635c0-.757-.053-1.276-.158-1.558-.198-.512-.601-.77-1.206-.77-.595 0-1.056.293-1.383.876-.27.503-.403 1.097-.403 1.785v5.302h-1.38v-6.894c0-.782-.026-1.423-.072-1.924h1.366v1.206c.489-.932 1.252-1.398 2.291-1.398 1.552 0 2.327.915 2.327 2.746v6.264zm8.031-2.747c0 1.948-.916 2.922-2.747 2.922-1.26 0-2.105-.409-2.537-1.225-.327-.618-.49-1.692-.49-3.22 0-1.527.146-2.613.439-3.254.442-.992 1.316-1.486 2.622-1.486 1.004 0 1.715.232 2.136.698.385.444.577 1.161.577 2.152h-1.365c0-1.235-.456-1.853-1.365-1.853-.723 0-1.195.39-1.416 1.17-.129.456-.194 1.267-.194 2.433 0 1.33.1 2.245.299 2.747.22.56.641.84 1.259.84.55 0 .933-.191 1.155-.577.164-.291.25-.74.262-1.347h1.365zm7.628-1.47h-4.619v.596c0 .898.082 1.545.245 1.941.232.572.688.857 1.366.857 1.014 0 1.545-.648 1.591-1.942h1.365c-.082 1.959-1.067 2.939-2.956 2.939-1.225 0-2.066-.414-2.521-1.242-.338-.618-.506-1.615-.506-2.991 0-1.563.145-2.684.436-3.36.455-1.061 1.354-1.592 2.694-1.592 1.26 0 2.102.466 2.52 1.4.257.583.385 1.58.385 2.991v.403zm-1.4-.945c0-.852-.057-1.452-.173-1.802-.21-.7-.66-1.05-1.347-1.05-.958 0-1.5.571-1.629 1.716-.045.394-.07.775-.07 1.136h3.22zm-23.777 0c0-.852-.059-1.452-.175-1.802-.21-.7-.66-1.05-1.347-1.05-.957 0-1.5.571-1.628 1.716-.046.394-.07.775-.07 1.136h3.22zm-12.808 0c0-.852-.058-1.452-.175-1.802-.21-.7-.66-1.05-1.347-1.05-.957 0-1.499.571-1.627 1.716-.047.394-.07.775-.07 1.136h3.22zm-8.294-1.225c0-1.166-.029-1.988-.088-2.466-.14-1.097-.454-1.821-.944-2.171-.397-.302-.979-.454-1.748-.454h-1.541v10.288h1.733c.628 0 1.136-.146 1.522-.437.489-.362.81-1.096.961-2.205.071-.525.105-1.376.105-2.555z"/><path d="M63 0h5.496v1.215h-4v4.35h3.773v1.2h-3.773v5.97H63V0zm20.767 12.735h-1.356l-.017-1.02c-.505.774-1.199 1.16-2.08 1.16-1.137 0-1.918-.51-2.342-1.532-.27-.681-.405-1.738-.405-3.17 0-1.35.159-2.371.477-3.065.422-.963 1.167-1.443 2.236-1.443.892 0 1.562.346 2.008 1.038V0h1.41v11.061c0 .318.023.876.07 1.674zm8.28-4.245h-4.65v.6c0 .904.082 1.556.246 1.955.234.575.692.862 1.373.862 1.023 0 1.556-.652 1.604-1.955h1.373c-.082 1.972-1.074 2.958-2.977 2.958-1.233 0-2.078-.416-2.536-1.25-.34-.622-.511-1.625-.511-3.011 0-1.573.148-2.702.44-3.383.46-1.067 1.363-1.602 2.713-1.602 1.269 0 2.114.47 2.536 1.409.259.588.388 1.591.388 3.012v.405zm5.918-3.47a2.19 2.19 0 0 0-.299-.035c-.67 0-1.172.205-1.506.617-.336.41-.503.957-.503 1.638v5.495h-1.41V5.477c0-.598-.017-1.138-.05-1.62h1.372V5.02c.48-.893 1.233-1.339 2.254-1.339.095 0 .142.446.142 1.34zm6.956 7.716h-1.356l-.016-1.163c-.6.868-1.393 1.303-2.38 1.303-.75 0-1.331-.246-1.743-.74-.363-.47-.545-1.092-.545-1.866 0-1.258.482-2.103 1.443-2.536.636-.295 1.68-.448 3.137-.459v-.388c0-.728-.06-1.233-.177-1.515-.187-.47-.587-.704-1.198-.704-.423 0-.775.118-1.057.352-.28.235-.423.564-.423.987v.087h-1.392v-.087c0-.811.295-1.416.883-1.815.503-.352 1.186-.528 2.042-.528 1.022 0 1.733.246 2.132.74.376.446.563 1.186.563 2.22v3.275c0 1.07.03 2.014.087 2.837zm3.893 0h-1.392V0h1.392v12.735zm18.144 0h-1.462V1.11l-3.277 11.625h-1.673L117.27 1.11v11.625h-1.356V0h2.466l3.064 11.22L124.492 0h2.466v12.735zm2.85 0V3.857h1.393v8.877h-1.392zM129.74 1.69V.176h1.533v1.515h-1.533zm10.04 11.044h-1.393V7.063c0-.762-.051-1.285-.157-1.568-.2-.516-.605-.775-1.214-.775-.6 0-1.063.295-1.392.88-.271.507-.406 1.106-.406 1.798v5.337h-1.392v-6.94c0-.787-.023-1.432-.07-1.937h1.375v1.214c.493-.938 1.261-1.407 2.307-1.407 1.562 0 2.343.92 2.343 2.765v6.305zm2.625 0V3.858h1.392v8.877h-1.392zm-.071-11.044V.176h1.532v1.515h-1.532zm9 8.613c0 1.726-.927 2.59-2.782 2.59-1.82 0-2.712-.958-2.678-2.872h1.392c0 .178.007.341.017.494.083.928.516 1.39 1.304 1.39.893 0 1.34-.456 1.34-1.373 0-.492-.142-.88-.424-1.163-.176-.187-.569-.445-1.18-.774-.834-.446-1.362-.775-1.585-.987-.446-.41-.67-.957-.67-1.638 0-.764.252-1.344.757-1.743.47-.377 1.1-.564 1.885-.564.916 0 1.568.213 1.956.642.387.429.592 1.09.617 1.983h-1.393c0-1.104-.415-1.657-1.25-1.657-.364 0-.65.112-.862.335-.212.223-.317.517-.317.88 0 .4.168.741.51 1.023.176.164.594.423 1.252.775.715.386 1.208.715 1.479.986.42.446.633 1.004.633 1.673zm5.532 2.431c-.434.047-.776.07-1.022.07-.798 0-1.345-.17-1.638-.511-.247-.306-.37-.862-.37-1.673V4.88h-1.32V3.858h1.32V2.22l1.39-.618v2.256h1.587v1.02h-1.586v5.584c0 .495.071.825.212.996.141.17.405.256.793.256.07 0 .28-.023.634-.072v1.093zm5.442-7.715a2.138 2.138 0 0 0-.299-.035c-.669 0-1.17.205-1.506.617-.335.41-.502.957-.502 1.638v5.495h-1.409V5.477c0-.598-.018-1.138-.053-1.62h1.374V5.02c.481-.893 1.233-1.339 2.255-1.339.094 0 .14.446.14 1.34zm7.31-1.163L166.061 16.1h-1.356l1.02-3.365-2.658-8.878h1.496l1.868 7.116 1.814-7.116h1.373zM75.701 8.49h-4.652v.6c0 .904.083 1.556.248 1.955.234.575.692.862 1.373.862 1.023 0 1.556-.652 1.604-1.955h1.374c-.083 1.972-1.074 2.958-2.978 2.958-1.233 0-2.077-.416-2.536-1.25-.34-.622-.511-1.625-.511-3.011 0-1.573.148-2.702.441-3.383.458-1.067 1.363-1.602 2.712-1.602 1.27 0 2.114.47 2.537 1.409.258.588.388 1.591.388 3.012v.405zm14.936-.951h-3.24c0-.363.023-.747.07-1.144.129-1.152.675-1.727 1.638-1.727.692 0 1.144.352 1.356 1.057.117.352.176.957.176 1.814zM103.461 9.3c0 .694-.124 1.263-.37 1.709-.318.564-.806.846-1.464.846-.868 0-1.303-.57-1.303-1.71 0-1.267.928-1.902 2.783-1.902h.354V9.3zM74.29 7.54c0-.857-.059-1.462-.176-1.814-.212-.705-.664-1.057-1.356-1.057-.963 0-1.509.575-1.638 1.727a9.84 9.84 0 0 0-.072 1.144h3.243zm8.05.846c0 1.092-.082 1.878-.246 2.36-.246.74-.747 1.11-1.498 1.11-.633 0-1.074-.364-1.32-1.093-.189-.54-.283-1.39-.283-2.554 0-1.069.083-1.854.247-2.36.246-.776.717-1.162 1.409-1.162.704 0 1.18.37 1.428 1.11.174.515.263 1.379.263 2.589z" fill="currentColor"/></g></svg>