<svg xmlns="http://www.w3.org/2000/svg" viewBox="0 0 756.496 398.764" role="img" aria-labelledby="logo-bmvg-title"><title id="logo-bmvg-title">Bundesministerium-der-Verteidigung-Logo</title><g fill="currentColor"><path d="M266.384 122.157c0 6.634 0 14.043-5.983 14.043-6.687 0-6.687-7.15-6.687-12.093 0-8.776.776-13.32 6.488-13.32 5.924 0 6.182 7.018 6.182 11.37zm0-11.762h-.192c-1.824-2.6-4.1-3.966-7.21-3.966-10.608 0-10.867 9.426-10.867 17.612 0 14.428 5.334 16.511 10.601 16.511 3.443 0 5.718-1.492 7.542-4.55h.126v3.9h5.327V92.975h-5.327v17.42m19.769 10.787c.06-9.095 2.859-10.72 6.235-10.72 3.901 0 6.561 1.16 6.561 10.72h-12.796zm18.455 4.033v-2.793c0-10.859-2.342-15.993-11.695-15.993-11.377 0-12.485 7.933-12.485 17.546 0 14.494 5.526 16.577 12.485 16.577 6.885 0 11.37-3.31 11.436-10.587h-5.851c-.192 3.31-2.076 6.235-5.718 6.235-4.16 0-6.627-1.824-6.627-10.985h18.455" fill-rule="evenodd"/><path d="M317.809 107.079h-5.334v32.823h5.334v-19.364c0-4.424 1.492-8.915 7.403-8.915.975 0 1.89.199 2.866.331v-5.525c-5.201 0-7.928.583-10.143 5.585h-.126v-4.935m55.921-14.104h-6.116l-10.985 41.268h-.126l-10.727-41.268h-6.5l13.585 46.927h7.151l13.718-46.927"/><path d="M380.543 121.182c.067-9.095 2.86-10.72 6.236-10.72 3.907 0 6.574 1.16 6.574 10.72h-12.81zm18.468 4.033v-2.793c0-10.859-2.341-15.993-11.708-15.993-11.377 0-12.478 7.933-12.478 17.546 0 14.494 5.526 16.577 12.478 16.577 6.892 0 11.377-3.31 11.443-10.587h-5.844c-.2 3.31-2.083 6.235-5.732 6.235-4.159 0-6.627-1.824-6.627-10.985h18.468" fill-rule="evenodd"/><path d="M412.206 107.079h-5.334v32.823h5.334v-19.364c0-4.424 1.492-8.915 7.41-8.915.981 0 1.883.199 2.859.331v-5.525c-5.201 0-7.934.583-10.137 5.585h-.132v-4.935m12.896 0v4.026h5.4v23.337c0 3.768 2.268 5.851 7.343 5.851 1.751 0 3.509-.391 5.26-.524v-4.093c-1.167.133-2.01.266-2.401.266-4.876 0-4.876-2.667-4.876-4.75v-20.087h7.151v-4.026h-7.15v-8.71l-5.328 2.401v6.309h-5.4"/><path d="M453.295 121.182c.066-9.095 2.859-10.72 6.235-10.72 3.908 0 6.574 1.16 6.574 10.72h-12.81zm18.455 4.033v-2.793c0-10.859-2.329-15.993-11.696-15.993-11.376 0-12.484 7.933-12.484 17.546 0 14.494 5.532 16.577 12.484 16.577 6.893 0 11.377-3.31 11.443-10.587h-5.85c-.193 3.31-2.083 6.235-5.725 6.235-4.16 0-6.627-1.824-6.627-10.985h18.455m7.549 14.654h5.307v-32.77h-5.307v32.77zm5.638-46.9h-5.97v5.705h5.97v-5.705zm26.27 29.188c0 6.634 0 14.043-5.977 14.043-6.7 0-6.7-7.15-6.7-12.093 0-8.776.782-13.32 6.507-13.32 5.91 0 6.17 7.018 6.17 11.37zm0-11.762h-.193c-1.817-2.6-4.1-3.966-7.217-3.966-10.594 0-10.853 9.426-10.853 17.612 0 14.428 5.327 16.511 10.594 16.511 3.443 0 5.725-1.492 7.536-4.55h.133v3.9h5.333V92.975h-5.333v17.42m14.992 29.474h5.373v-32.77h-5.373v32.77zm5.705-46.9h-6.037v5.705h6.037v-5.705zm26.356 30.362c0 4.55.198 12.146-6.236 12.146-3.96 0-6.369-2.46-6.369-12.995 0-4.352.193-11.635 6.243-11.635 6.693 0 6.361 7.608 6.361 12.484zm-.127-12.226h-.126c-1.5-3.184-4.232-4.676-7.675-4.676-2.66 0-10.269.975-10.269 16.053 0 9.752 1.751 17.42 10.66 17.42 2.86 0 5.845-1.5 7.211-4.093h.2v6.826c0 3.377-2.01 5.659-5.72 5.659-2.931 0-4.941-1.692-5.008-4.757h-5.983c-.451 6.057 4.484 8.783 9.95 8.783 7.218 0 12.094-1.758 12.094-9.101v-36.14h-5.334v4.026" fill-rule="evenodd"/><path d="M590.505 128.857c0 5.453-3.568 7.602-6.434 7.602-3.768 0-5.586-2.667-5.586-6.627V107.08h-5.34v25.02c0 5.592 3.125 8.451 8.85 8.451 3.442 0 6.56-1.625 8.318-4.61h.192v3.96h5.652c-.192-2.269-.325-4.55-.325-6.82V107.08h-5.327v21.778m38.091 11.044v-22.747c0-6.5-1.751-10.726-8.776-10.726-4.22 0-6.687 1.167-8.77 4.869h-.265v-4.22h-5.652c.199 2.276.331 4.545.331 6.827v25.997h5.32v-19.437c0-4.484.85-9.678 6.7-9.678 4.545 0 5.785 2.859 5.785 6.368v22.747h5.327"/><path d="M654.932 123.331c0 4.55.192 12.146-6.243 12.146-3.967 0-6.375-2.46-6.375-12.995 0-4.352.193-11.635 6.25-11.635 6.686 0 6.368 7.608 6.368 12.484zm-.133-12.226h-.133c-1.499-3.184-4.225-4.676-7.668-4.676-2.667 0-10.27.975-10.27 16.053 0 9.752 1.752 17.42 10.655 17.42 2.865 0 5.857-1.5 7.217-4.093h.199v6.826c0 3.377-2.017 5.659-5.725 5.659-2.925 0-4.935-1.692-5.002-4.757h-5.983c-.458 6.057 4.49 8.783 9.95 8.783 7.211 0 12.087-1.758 12.087-9.101v-36.14h-5.327v4.026M256.056 48.291h6.375c6.11 0 10.72 1.3 10.72 8.77 0 3.45-2.276 8-8.644 8h-8.451v-16.77zm0-19.768h8.451c5.009 0 7.218 3.184 7.218 7.085 0 4.55-2.276 7.416-6.96 7.476h-8.71V28.523zm9.101 41.732c5.327 0 14.103-1.16 14.103-13.194 0-6.435-2.925-10.462-9.612-11.244v-.319c6.037-1.373 8.06-5.267 8.06-11.118 0-.909-.265-3.701-1.89-6.242-1.752-2.6-3.967-4.81-10.462-4.81H250.08v46.927h15.078" fill-rule="evenodd"/><path d="M304.389 59.21c0 5.46-3.576 7.602-6.435 7.602-3.768 0-5.592-2.667-5.592-6.627V37.438h-5.32v25.016c0 5.592 3.11 8.451 8.83 8.451 3.442 0 6.573-1.618 8.318-4.61h.199v3.96h5.658c-.192-2.269-.325-4.544-.325-6.826V37.44h-5.333v21.77m38.097 11.045V47.508c0-6.5-1.758-10.726-8.776-10.726-4.226 0-6.7 1.174-8.777 4.875h-.258v-4.219h-5.659c.192 2.27.325 4.545.325 6.82v25.997h5.334V50.818c0-4.477.842-9.678 6.693-9.678 4.55 0 5.784 2.859 5.784 6.368v22.747h5.334"/><path d="M368.682 52.51c0 6.634 0 14.044-5.983 14.044-6.687 0-6.687-7.152-6.687-12.087 0-8.776.776-13.327 6.488-13.327 5.924 0 6.182 7.018 6.182 11.37zm0-11.761h-.192c-1.824-2.594-4.1-3.967-7.218-3.967-10.6 0-10.859 9.433-10.859 17.612 0 14.435 5.334 16.511 10.594 16.511 3.456 0 5.725-1.492 7.55-4.55h.125v3.9h5.327V23.33h-5.327v17.42m19.112 10.785c.073-9.095 2.859-10.72 6.242-10.72 3.894 0 6.568 1.168 6.568 10.72h-12.81zm18.461 4.033v-2.793c0-10.852-2.348-15.993-11.701-15.993-11.37 0-12.478 7.934-12.478 17.552 0 14.495 5.526 16.571 12.478 16.571 6.892 0 11.376-3.31 11.436-10.587h-5.85c-.193 3.31-2.077 6.236-5.712 6.236-4.166 0-6.634-1.825-6.634-10.986h18.461" fill-rule="evenodd"/><path d="M435.636 60.902c0-10.017-16.379-9.891-16.379-15.67 0-2.858 2.216-4.417 5.068-4.417 3.384 0 5.208 1.818 5.135 5.267h5.917c.451-6.508-4.55-9.3-10.395-9.3-9.24 0-11.317 5.532-11.317 8.968 0 9.818 16.385 9.944 16.385 15.795 0 3.383-2.474 5.009-5.658 5.009-5.393 0-5.466-4.418-5.466-6.302h-6.037c-.199 7.535 4.226 10.653 11.304 10.653 6.5 0 11.443-2.793 11.443-10.003m29.758 9.353V48.158c0-1.24.26-4.484 1.818-5.784 1.433-1.168 2.017-1.234 4.033-1.234 4.286 0 5.195 3.051 5.195 6.368v22.747h5.333V45.3c0-7.735-5.526-8.517-8.969-8.517-2.985 0-5.983.716-7.8 4.225-1.235-2.985-4.684-4.225-7.676-4.225-3.828 0-6.627 1.24-8.186 4.75h-.133v-4.094h-5.652c.193 2.27.326 4.545.326 6.82v25.997h5.326V48.158c0-1.24.26-3.184 1.24-4.816.777-1.227 2.993-2.202 4.611-2.202 4.292 0 5.201 3.051 5.201 6.368v22.747h5.333"/><path d="M491.173 70.282h5.373V37.445h-5.373v32.837zm5.705-46.967h-6.037v5.705h6.037v-5.705z" fill-rule="evenodd"/><path d="M529.336 70.255V47.508c0-6.5-1.75-10.726-8.77-10.726-4.232 0-6.7 1.174-8.776 4.875h-.258v-4.219h-5.652c.186 2.27.312 4.545.312 6.82v25.997h5.34V50.818c0-4.477.842-9.678 6.686-9.678 4.558 0 5.792 2.859 5.792 6.368v22.747h5.326"/><path d="M538.736 70.282h5.374V37.445h-5.374v32.837zm5.705-46.967h-6.036v5.705h6.036v-5.705z" fill-rule="evenodd"/><path d="M574.38 60.902c0-10.017-16.38-9.891-16.38-15.67 0-2.858 2.21-4.417 5.069-4.417 3.383 0 5.2 1.818 5.134 5.267h5.917c.451-6.508-4.557-9.3-10.401-9.3-9.228 0-11.304 5.532-11.304 8.968 0 9.818 16.372 9.944 16.372 15.795 0 3.383-2.468 5.009-5.652 5.009-5.4 0-5.46-4.418-5.46-6.302h-6.043c-.192 7.535 4.22 10.653 11.31 10.653 6.495 0 11.437-2.793 11.437-10.003m3.556-23.464v4.027h5.4v23.337c0 3.768 2.268 5.844 7.343 5.844 1.758 0 3.51-.39 5.267-.524V66.03c-1.167.132-2.017.265-2.401.265-4.883 0-4.883-2.667-4.883-4.75v-20.08h7.158v-4.027h-7.158v-8.716l-5.327 2.408v6.308h-5.4"/><path d="M606.002 51.535c.066-9.095 2.865-10.72 6.249-10.72 3.894 0 6.56 1.168 6.56 10.72h-12.81zm18.461 4.033v-2.793c0-10.852-2.341-15.993-11.702-15.993-11.376 0-12.478 7.934-12.478 17.552 0 14.495 5.52 16.571 12.478 16.571 6.893 0 11.377-3.31 11.443-10.587h-5.85c-.2 3.31-2.077 6.236-5.719 6.236-4.166 0-6.633-1.825-6.633-10.986h18.461" fill-rule="evenodd"/><path d="M637.658 37.438h-5.327v32.817h5.327v-19.37c0-4.412 1.499-8.902 7.416-8.902.975 0 1.884.198 2.852.331v-5.532c-5.194 0-7.927.583-10.136 5.592h-.132v-4.936"/><path d="M653.631 70.282h5.307V37.445h-5.307v32.837zm5.64-46.967H653.3v5.705h5.97v-5.705z" fill-rule="evenodd"/><path d="M685.712 59.21c0 5.46-3.569 7.602-6.428 7.602-3.768 0-5.592-2.667-5.592-6.627V37.438h-5.327v25.016c0 5.592 3.118 8.451 8.842 8.451 3.443 0 6.561-1.618 8.312-4.61h.193v3.96h5.658c-.192-2.269-.318-4.544-.318-6.826V37.44h-5.34v21.77m36.598 11.045V48.158c0-1.24.265-4.484 1.824-5.784 1.433-1.168 2.017-1.234 4.033-1.234 4.286 0 5.194 3.051 5.194 6.368v22.747h5.34V45.3c0-7.735-5.532-8.517-8.975-8.517-2.992 0-5.983.716-7.8 4.225-1.235-2.985-4.684-4.225-7.676-4.225-3.828 0-6.62 1.24-8.186 4.75h-.133v-4.094h-5.645c.186 2.27.318 4.545.318 6.82v25.997h5.327V48.158c0-1.24.259-3.184 1.24-4.816.784-1.227 2.993-2.202 4.618-2.202 4.285 0 5.194 3.051 5.194 6.368v22.747h5.327M188.412 372.047h20.565V255.958h-20.565v116.09z"/><path d="M188.412 255.958h20.565v-116.42h-20.565v116.42z"/><path d="M188.412 139.935h20.565V23.846h-20.565v116.09z"/><path d="M70.963 139.935zm0 .04zm-.006.013zm0-.08zm53.288-96.446c0-6.614-4.816-11.848-6.508-13.32l-1.22.278c1.804 2.196 4.975 5.877 4.975 10.747 0 9.585-10.136 17.924-21.699 18.083.086.988.08 1.857.08 2.6a31.71 31.71 0 0 1-.252 4.014c13.128-.24 24.624-10.906 24.624-22.402zm-18.103 79.405c-5.606 0-6.82-.584-8.3-.584-.941 0-1.85.093-1.85 1.44 0 .928 1.055 2.288 2.003 3.005 1.307-1.307 3.125-1.6 6.044-1.6 1.366 0 3.224.273 4.046.386-.113.802-.278 1.844-.278 3.31 0 .776.033 1.671.033 2.627 0 3.31-.484 5.068-1.645 6.388.252.153.922.292 1.32.292 2.136 0 2.693-1.095 2.693-6.667 0-1.685.14-3.237.14-3.642 2.991 2.282 6.05 6.362 6.05 9.32.981-.497 2.129-1.976 2.129-3.09 0-2.01-3.364-5.003-6.92-8.625.492-.112 1.812-.497 2.9-.497 2.806 0 5.068.47 6.388 2.023.51-.57.948-2.269.948-3.237 0-1.678-.961-1.619-1.658-1.619-2.985 0-6.667.458-9.307.896-.955-1.274-7.065-9.54-8.65-13.944-.451-.166-.816-.299-1.56-.299-1.465 0-1.85 1.029-2.235 2.435 3.37 4.086 6.607 8.53 7.709 11.682zm-33.447-11.682c-.385-1.406-.763-2.435-2.236-2.435-.75 0-1.108.133-1.552.299-1.592 4.405-7.702 12.67-8.664 13.944-2.633-.438-6.315-.896-9.3-.896-.697 0-1.659-.06-1.659 1.619 0 .968.432 2.667.962 3.237 1.3-1.552 3.576-2.023 6.369-2.023 1.094 0 2.408.385 2.905.497-3.562 3.622-6.925 6.614-6.925 8.624 0 1.115 1.16 2.594 2.136 3.091 0-2.958 3.064-7.038 6.056-9.32 0 .405.14 1.957.14 3.642 0 5.572.55 6.667 2.686 6.667.392 0 1.062-.14 1.32-.292-1.16-1.32-1.645-3.078-1.645-6.388 0-.956.033-1.851.033-2.627 0-1.466-.166-2.508-.278-3.31.822-.113 2.68-.385 4.046-.385 2.919 0 4.73.292 6.05 1.599.949-.717 1.997-2.077 1.997-3.006 0-1.346-.909-1.439-1.858-1.439-1.479 0-2.686.584-8.298.584 1.108-3.151 4.338-7.596 7.715-11.682zM49.636 41.167c0-4.87 3.178-8.551 4.969-10.747l-1.214-.279c-1.699 1.473-6.508 6.707-6.508 13.32 0 11.576 11.662 22.323 24.91 22.41a34.702 34.702 0 0 1-.226-4.02c0-.896.04-1.765.113-2.595-11.709 0-22.044-8.404-22.044-18.09zm35.596-8.916c.61-1.387 1.42-3.038 1.42-4.85 0-5.021-4.166-7.416-9.738-7.416-2.86 0-4.306.929-4.306 1.858 0 .922.942 2.965 1.314 3.595 1.021-.451 2.886-1.002 3.96-1.002 3.821 0 6.687 4.286 7.35 7.815zm2.733-6.428c3.27.643 5.486-3.516 2.388-4.266.432 1.38-1.651 2.349-1.651 2.349s-.796-1.844.232-2.886c-1.89-.929-2.368.199-2.408 1.367a7.828 7.828 0 0 1 1.44 3.436zM98.52 54.348c.517.033 1.014.053 1.532.053 9.174 0 18.269-5.924 18.269-13.526 0-4.047-1.818-6.886-4.08-10.017-1.313.212-2.514.331-3.463.331-4.159 0-6.408-2.222-6.573-4.404 0-1.97 1.598-3.456 4.086-3.456 3.854 0 10.886 3.602 17.977 3.602-.703.53-1.864 1.08-3.264 1.612 4.16 3.741 6.933 8.743 7.987 14.103l10.86 17.38c1.824 2.906 5.678 8.604 11.483 13.055-7.019 0-11.676.166-17.613-9.227l-5.566-8.903a24.284 24.284 0 0 1-1.519 3.377l11.065 17.712c1.844 2.932 5.659 8.59 11.496 13.061-7.025 0-11.681.173-17.619-9.227l-9.525-15.25a36.083 36.083 0 0 1-2.263 2.208l13.447 21.52c1.85 2.938 5.652 8.577 11.49 13.061-7.026 0-11.683.166-17.62-9.227l-13.101-20.982c-.87.55-1.751 1.074-2.66 1.579l15.994 25.592c1.844 2.946 5.638 8.57 11.49 13.055-7.02 0-11.683.166-17.62-9.227l-16.465-26.356c-.975.372-1.97.723-2.972 1.048l18.614 29.799c1.811 2.886 5.699 8.61 11.483 13.048-7.025 0-11.682.166-17.619-9.234L96.417 78.753l-.597.12c-.544 1.71-.922 3.316-.922 4.915 0 9.977 6.547 18.78 14.408 25.586-.504.219-1.38.298-2.19.298-1.624 0-2.666-.092-3.409-.218 1.83 4.139 5.738 9.479 7.715 12.252 2.567-.465 6.309-.83 8.763-.83 2.56 0 2.846 1.5 2.846 2.84 0 2.328-1.088 4.192-2.348 5.22-.485-1.2-1.44-2.786-6.176-2.786l-.478.027c1.393 1.539 5.725 5.048 5.725 7.874 0 1.858-2.05 4.67-4.75 4.67.16-.61.133-1.16.133-1.579 0-2.282-2.023-4.955-3.728-6.826.04.558.026.498.026 1.148 0 5.4-.49 7.887-3.92 7.887-1.685 0-2.846-.922-3.244-1.194 2.222-2.063 2.342-3.675 2.342-6.706l-.027-2.627c-.007-.69.007-1.606.12-2.269-1.228-.172-1.725-.166-2.667-.166 0 0-4.883-.385-6.044 2.15-1.333-1.208-3.25-2.92-3.25-4.817 0-1.253.59-2.666 3.098-2.666.955 0 3.947.59 6.441.59-.663-1.499-3.662-5.877-6.249-9.055-.398 1.234-1.008 2.58-2.368 3.662-.186-2.05-1.38-8.504-4.577-12.272-.372 2.54-.876 5.16-.876 10.68 0 13.433 3.23 23.35 10.09 25.241-.896 1.559-2.78 2.952-4.736 2.952-2.508 0-3.875-2.84-5.268-5.513-.73 1.977-2.726 6.813-4.736 6.813-2.003 0-4.013-4.836-4.737-6.813-1.393 2.674-2.76 5.513-5.267 5.513-1.957 0-3.84-1.393-4.73-2.952 6.847-1.89 10.077-11.808 10.077-25.241 0-5.52-.497-8.14-.869-10.68-3.19 3.768-4.398 10.222-4.584 12.272-1.353-1.081-1.97-2.428-2.361-3.662-2.587 3.178-5.58 7.556-6.256 9.055 2.508 0 5.493-.59 6.441-.59 2.515 0 3.105 1.413 3.105 2.666 0 1.898-1.924 3.61-3.244 4.817-1.174-2.535-6.05-2.15-6.05-2.15-.942 0-1.433-.006-2.667.166.107.663.126 1.579.113 2.269l-.02 2.627c0 3.031.12 4.643 2.349 6.706-.398.272-1.566 1.194-3.25 1.194-3.424 0-3.915-2.487-3.915-7.887 0-.65-.026-.59.02-1.148-1.711 1.871-3.728 4.544-3.728 6.826 0 .418-.026.969.133 1.58-2.694 0-4.75-2.813-4.75-4.67 0-2.827 4.338-6.336 5.718-7.875l-.477-.027c-4.73 0-5.692 1.586-6.17 2.787-1.267-1.029-2.355-2.893-2.355-5.221 0-1.34.292-2.84 2.853-2.84 2.454 0 6.196.365 8.77.83 1.976-2.773 5.877-8.113 7.701-12.252-.736.126-1.778.218-3.403.218-.81 0-1.685-.08-2.189-.298 7.861-6.806 14.402-15.61 14.402-25.586 0-1.599-.372-3.204-.91-4.916l-.596-.12-19.841 31.756c-5.938 9.4-10.601 9.234-17.613 9.234 5.778-4.438 9.665-10.162 11.476-13.048l18.621-29.799a63.135 63.135 0 0 1-2.978-1.048l-16.465 26.356c-5.937 9.393-10.6 9.227-17.612 9.227 5.837-4.484 9.632-10.11 11.482-13.055l15.994-25.592a47.569 47.569 0 0 1-2.66-1.58L42.014 92.187c-5.937 9.393-10.587 9.227-17.612 9.227 5.844-4.484 9.638-10.123 11.482-13.061l13.447-21.52a35.495 35.495 0 0 1-2.256-2.209l-9.525 15.25c-5.937 9.4-10.593 9.227-17.619 9.227 5.838-4.47 9.652-10.13 11.497-13.061l11.058-17.712a24.206 24.206 0 0 1-1.506-3.377l-5.566 8.903c-5.943 9.393-10.6 9.227-17.619 9.227 5.805-4.451 9.659-10.15 11.49-13.055l10.853-17.38a25.75 25.75 0 0 1 7.98-14.103c-1.387-.531-2.554-1.082-3.25-1.612 7.084 0 14.11-3.602 17.97-3.602 2.494 0 4.086 1.486 4.086 3.456-.159 2.182-2.414 4.404-6.574 4.404-.948 0-2.142-.119-3.469-.331-2.255 3.13-4.066 5.97-4.066 10.017 0 7.602 9.081 13.526 18.262 13.526.524 0 1.015-.02 1.532-.053 1.818-6.156 5.685-10.196 8.783-14.143-3.714-1.354-7.847-4.87-7.847-6.468.477-.272 7.575 1.957 8.305 2.156.153.04.305.053.478 0 .855-.259 1.585-1.52 1.585-1.645-.756-.126-5.214-.704-8.259-1.818-2.315-.843-3.482-2.382-3.482-2.959.743-.12 3.555 1.36 7.695 1.36 1.532 0 1.824-.066 3.343-.245-1.061-2.548-3.071-4.697-5.327-4.697-.909 0-2.886.57-4.55 1.407-1.155-1.798-2.176-4.166-2.176-5.453 0-1.52 1.512-3.304 5.758-3.304 1.194 0 2.295.1 3.33.292.829.153 1.526.338 2.275.63-.053-.1-.093-.318-.093-.537 0-.577.538-1.207 2.534-1.207 3.496 0 7.078 1.147 11.47 1.147 1.14 0 1.91-.033 2.574-.318-.292.882-1.52 2.169-2.654 3.21.697.962 2.514 3.264 2.514 6.986 0 5.977-3.94 10.912-3.94 16.962 0 3.589 2.766 6.76 3.596 8.644" fill-rule="evenodd"/></g></svg>