<svg xmlns="http://www.w3.org/2000/svg" viewBox="0 0 283.5 66.9" role="img" aria-labelledby="logo-bitkom-title"><title id="logo-bitkom-title">Bitkom logo</title><path fill="currentColor" d="M43.2 25.7c-2.8-3.6-7-5.5-12.3-5.5-3.2 0-6.2.9-8.7 2.5-2.5 1.6-4.4 3.9-5.5 6.6.4-2.2.7-5.7.7-8.5V.1C16 0 14.6 0 13.2 0 9.1 0 4.4.3 0 .7v6c2.4.2 5.3.5 7.6.9v57.2c5.2 1.3 10 1.9 16 1.9 7.3 0 13.4-2.4 17.5-6.9 4.1-4.4 6.3-10.8 6.3-18.5.1-6.7-1.3-12-4.2-15.6zm-9.5 29.5c-2.2 2.6-5.3 3.8-9.3 3.8-2.9 0-5.2-.3-7.1-.9V44.2c0-3.9 1-7.9 2.8-10.8 1.4-2.3 4-5.1 8.2-5.1 3 0 5.2 1.2 6.7 3.6 1.5 2.3 2.2 5.8 2.2 10.4.1 5.7-1.1 10-3.5 12.9zM105 57.9c-1.9.4-3.8.6-5.5.6-2.4 0-3.7-.5-4.6-1.7-.9-1.2-1.2-3.2-1.2-6.7V28.7h11.7v-7.6H93.6V4.2l-9.7 2.6V21h-8.6v7.6h8.6V53c0 5.3.8 8.6 2.6 10.6 1.9 2.2 4.9 3.1 9.8 3.1 2.9 0 6.6-.4 9.4-1.1l-.7-7.7z"/><path fill="currentColor" d="M144.5 66l-17-23.1v16c2.3.2 4.5.5 6.2 1.1v6h-23.3v-6c2.2-.5 4.9-1 7.4-1.2V7.6c-2.2-.4-5.1-.7-7.7-.9v-6c5-.5 11.5-.9 17.3-.6v41.4l11.8-13.4c-2-.2-3.7-.5-4.9-.9v-6h22.6v6c-1.8.5-4.1.8-6.2 1l-12.5 13.5 13.3 17c2.1.3 4.5.6 6.9 1.2v6h-13.9zM179.3 66.9c-12.4 0-20.5-6.9-20.5-22.6 0-13.7 8.7-24.1 22.3-24.1 12 0 20.5 6.6 20.5 22.5 0 13.8-8.8 24.2-22.3 24.2zm1-38.5c-6 0-11.5 4.5-11.5 15.2 0 9.7 3.9 15.1 11.5 15.1 6.3 0 11.5-4.9 11.5-15.1-.1-9.8-4-15.2-11.5-15.2zM266.4 66V37.4c0-5.5-1.3-9.1-6.4-9.1-5.8 0-11.5 6.4-11.5 16.3v14.3c2.3.2 4.9.5 6.9 1.1v6h-16.5V37.4c0-5.1-1-9.1-6.4-9.1-6.1 0-11.5 6.9-11.5 16.3v14.3c2.3.2 4.9.5 6.9 1.1v6h-24.4v-6c2.3-.5 5.1-1 7.8-1.2V28.6c-2.2-.4-5.2-.7-7.8-.9v-6c5-.5 11.6-.9 17-.6 0 2.3-.2 6.1-.6 8.8l.1.1c2.6-6 8.3-9.8 15.2-9.8 8.7 0 11.6 5.7 12.4 9.7 2-4.2 6.9-9.7 15.1-9.7 8.6 0 13.3 4.7 13.3 14.8v23.8c2.6.2 5.2.6 7.4 1.2v6h-17z"/><path fill="currentColor" d="M75.5 60c-2.3-.6-5-1-7.5-1.2V21.1c-1.3-.1-2.7-.1-4.2-.1-4.2 0-8.9.3-13.2.7v6c2.5.2 5.6.5 7.8.9v30.2c-2.5.2-5.3.6-7.8 1.2v6h25l-.1-6zm-6.9-48.6V1.6H58.4v10.7l10.2-.9z"/></svg>